<svg width="341" height="379" viewBox="0 0 341 379" fill="none" xmlns="http://www.w3.org/2000/svg">
<g filter="url(#filter0_dd_82_741)">
<path d="M151.268 226.384C151.268 226.384 157.478 149.707 142.398 148.113C133.287 147.15 113.773 215.015 111.841 222.217C109.856 229.412 151.268 226.384 151.268 226.384Z" fill="#FCD375"/>
<path d="M151.271 226.861C151.486 226.83 151.659 226.69 151.687 226.428C151.917 223.279 157.79 149.264 142.396 147.636C138.259 147.199 132.246 158.412 123.918 181.917C117.69 199.614 112.305 218.352 111.328 222.057C111.145 222.778 111.282 223.48 111.75 224.059C112.967 225.562 116.634 226.426 121.19 226.908C132.756 228.183 150.259 226.912 151.271 226.861ZM112.55 223.508C112.269 223.161 112.151 222.779 112.306 222.319C117.662 202.361 134.813 147.734 142.406 148.537C156.334 150.009 151.361 220.046 150.894 225.921C140.913 226.665 115.831 227.505 112.55 223.508Z" fill="#FCD375"/>
<path d="M154.858 230.044L163.167 178.396L148.235 167.455C144.717 177.61 136.106 214.203 126.212 222.573C116.377 230.896 154.858 230.044 154.858 230.044Z" fill="#E8AE37"/>
<path d="M136.446 229.897C144.248 230.721 153.215 230.558 154.86 230.52C155.075 230.49 155.249 230.35 155.324 230.146L163.632 178.498C163.649 178.341 163.614 178.179 163.468 178.057L148.536 167.117C148.437 167.053 148.285 166.984 148.117 167.072C147.954 167.108 147.891 167.207 147.822 167.358C147.058 169.552 146.045 173.095 144.814 177.197C140.625 191.671 133.549 215.837 125.926 222.278C124.414 223.547 123.862 224.758 124.274 225.859C125.156 228.016 130.477 229.266 136.446 229.897ZM126.545 222.926C134.4 216.297 141.183 192.893 145.693 177.395C146.781 173.649 147.708 170.414 148.471 168.221L162.662 178.66L154.478 229.634C146.465 229.792 126.604 229.332 125.162 225.477C124.92 224.764 125.381 223.913 126.545 222.926Z" fill="#E8AE37"/>
<path d="M139.389 224.352C137.783 242.909 167.245 291.464 167.245 291.464L252.154 263.99L280.046 149.339C280.046 149.339 237.657 122.694 214.541 124.43C191.477 126.172 189.028 128.77 189.028 128.77C189.028 128.77 139.223 136.943 139.462 149.611C139.706 162.227 149.92 176.215 149.92 176.215C149.92 176.215 140.944 205.789 139.389 224.352Z" fill="#4461AB"/>
<path d="M138.918 224.302C138.245 232.113 142.769 245.817 152.315 265.076C159.425 279.37 166.809 291.577 166.851 291.687C166.944 291.803 167.043 291.866 167.2 291.883C167.253 291.888 167.305 291.894 167.363 291.847L252.272 264.372C252.435 264.337 252.556 264.191 252.573 264.034L280.465 149.383C280.487 149.174 280.451 149.012 280.253 148.885C280.154 148.821 269.48 142.139 256.125 135.755C238.132 127.188 224.155 123.171 214.492 123.896C193.829 125.468 189.622 127.668 188.817 128.271C185.475 128.817 138.757 136.84 138.991 149.561C139.214 161.382 148.191 174.55 149.443 176.217C148.665 179.044 140.419 206.739 138.918 224.302ZM150.433 176.374C150.502 176.223 150.461 176.113 150.367 175.997C150.273 175.882 140.206 162.015 139.986 149.666C139.738 137.579 188.647 129.364 189.182 129.315C189.287 129.326 189.351 129.227 189.408 129.18C189.524 129.086 192.433 126.643 214.59 124.964C216.566 124.803 218.626 124.862 220.825 125.094C243.082 127.446 276.164 147.5 279.541 149.603L251.815 263.689L167.458 290.958C164.938 286.777 138.371 241.86 139.861 224.402C141.387 206.101 150.347 176.683 150.433 176.374Z" fill="#4461AB"/>
<path d="M254.249 267.755C267.453 255.662 256.364 161.917 256.364 161.917C247.885 169.431 240.599 181.146 237.586 207.435C234.579 233.673 224.945 245.562 218.044 249.699C211.142 253.836 182.168 261.354 174.878 258.203C167.582 255.104 172.632 279.284 172.632 279.284C172.632 279.284 241.045 279.849 254.249 267.755Z" fill="#244698"/>
<path d="M172.582 279.755C172.634 279.76 172.634 279.76 172.582 279.755C172.791 279.777 189.936 279.896 208.511 278.527C233.493 276.67 248.958 273.174 254.53 268.102C260.106 262.979 262.18 243.519 260.688 210.3C259.556 185.635 256.818 162.123 256.794 161.856C256.758 161.694 256.67 161.526 256.513 161.509C256.362 161.44 256.199 161.476 256.025 161.616C248.947 167.904 240.368 178.846 237.115 207.385C233.779 236.709 222.466 246.464 217.768 249.3C210.977 253.396 182.119 260.82 175.027 257.796C173.914 257.308 172.955 257.365 172.202 257.973C168.488 261.019 171.763 277.499 172.144 279.391C172.226 279.611 172.425 279.738 172.582 279.755ZM172.815 258.673C173.105 258.439 173.488 258.321 173.907 258.365C174.169 258.393 174.425 258.473 174.728 258.61C182.176 261.778 211.197 254.318 218.272 250.041C223.08 247.163 234.683 237.175 238.063 207.433C241.193 180.044 249.192 169.093 256.002 162.83C257.104 172.363 266.17 256.267 253.916 267.403C241.476 278.784 178.399 278.835 172.996 278.846C171.96 273.659 170.087 260.923 172.815 258.673Z" fill="#244698"/>
<path d="M171.143 304.281L184.883 319.021L255.717 308.513L171.143 304.281Z" fill="#191446"/>
<path d="M184.839 319.439C184.891 319.445 184.891 319.445 184.944 319.45L255.719 308.99C255.934 308.96 256.113 308.767 256.089 308.5C256.059 308.285 255.866 308.105 255.657 308.083L171.089 303.799C170.879 303.776 170.711 303.864 170.636 304.068C170.567 304.22 170.597 304.435 170.691 304.55L184.431 319.29C184.629 319.417 184.734 319.428 184.839 319.439ZM251.081 308.764L185.038 318.56L172.199 304.816L251.081 308.764Z" fill="#191446"/>
<path d="M184.886 319.019L179.918 325.373L254.931 315.892L255.717 308.512L184.886 319.019Z" fill="#C0C3D6"/>
<path d="M179.979 325.803L254.938 316.316C255.154 316.286 255.328 316.145 255.35 315.936L256.136 308.557C256.153 308.4 256.111 308.29 256.018 308.174C255.924 308.058 255.767 308.042 255.662 308.031L184.889 318.49C184.779 318.531 184.669 318.572 184.605 318.671L179.637 325.026C179.516 325.172 179.494 325.381 179.582 325.55C179.675 325.665 179.769 325.781 179.926 325.798L179.979 325.803ZM185.161 319.418L255.184 309.038L254.498 315.476L180.992 324.746L185.161 319.418Z" fill="#C0C3D6"/>
<path d="M207.953 309.711C217.04 301.467 193.734 259.753 184.999 264.701C184.999 264.701 181.597 262.332 181.041 274.017C180.379 285.69 198.866 317.955 207.953 309.711Z" fill="#283A84"/>
<path d="M201.386 310.71C202.295 311.123 203.163 311.427 204.001 311.515C205.572 311.681 207 311.198 208.228 310.111C214.379 304.571 206.507 285.013 198.149 273.497C192.84 266.165 188.061 262.803 184.939 264.272C184.583 264.128 184.013 264.015 183.45 264.326C181.773 265.154 180.788 268.435 180.506 274.066C180.01 283.694 191.809 306.154 201.386 310.71ZM183.849 265.056C184.07 264.973 184.232 264.938 184.389 264.954C184.599 264.976 184.698 265.04 184.75 265.045C184.896 265.167 185.059 265.131 185.227 265.043C187.82 263.571 192.395 266.858 197.47 273.901C206.467 286.384 212.896 304.573 207.678 309.312C206.097 310.732 204.12 310.893 201.8 309.802C192.678 305.452 181.014 283.218 181.465 274.008C181.776 267.111 183.118 265.455 183.849 265.056Z" fill="#283A84"/>
<path d="M199.696 307.619C201.523 288.501 189.034 272.527 185.784 268.745C175.862 269.919 166.232 275.304 166.232 275.304C166.232 275.304 164.955 309.135 179.46 310.666C186.524 311.465 193.971 309.659 199.696 307.619Z" fill="#F9C09D"/>
<path d="M199.861 308.059C200.024 308.023 200.151 307.825 200.167 307.668C201.994 288.551 189.902 272.83 186.131 268.464C186.038 268.348 185.886 268.28 185.724 268.315C175.802 269.49 166.12 274.869 166.01 274.91C165.894 275.004 165.772 275.15 165.756 275.307C165.71 276.73 164.643 309.578 179.41 311.137C185.374 311.82 192.266 310.749 199.861 308.059ZM166.676 275.615C168.138 274.817 176.765 270.385 185.571 269.251C189.43 273.786 200.839 288.958 199.253 307.307C191.884 309.862 185.259 310.908 179.499 310.3C166.256 308.849 166.609 278.73 166.676 275.615Z" fill="#F9C09D"/>
<path d="M209.927 303.096C209.927 303.096 207.843 272.986 195.626 269.368C192.546 268.461 189.167 268.369 185.784 268.805C189.035 272.587 201.528 288.507 199.695 307.676C205.699 305.507 209.927 303.096 209.927 303.096Z" fill="#E68262"/>
<path d="M199.23 307.575C199.213 307.731 199.301 307.899 199.4 307.963C199.447 308.021 199.552 308.032 199.656 308.043C199.709 308.048 199.813 308.059 199.871 308.013C205.869 305.895 210.097 303.485 210.155 303.438C210.323 303.35 210.393 303.198 210.357 303.036C210.276 301.811 208.149 272.595 195.729 268.903C192.852 268.07 189.484 267.873 185.677 268.317C185.515 268.353 185.346 268.441 185.33 268.598C185.26 268.749 185.296 268.912 185.384 269.08C189.108 273.388 201.017 288.824 199.23 307.575ZM195.477 269.775C206.61 273.12 209.173 299.737 209.426 302.832C208.468 303.366 204.935 305.214 200.198 306.936C201.582 288.989 190.879 274.157 186.652 269.108C190.018 268.829 192.961 269.034 195.477 269.775Z" fill="#E68262"/>
<path d="M197.147 258.607C197.147 258.607 223.56 282.082 221.42 309.628C221.42 309.628 291.763 313.941 304.12 285.941C316.476 257.941 295.742 140.907 275.676 149.313C264.09 154.172 246.996 165.008 242.681 187.616C238.313 210.218 243.883 242.44 243.883 242.44C243.883 242.44 193.486 249.228 197.147 258.607Z" fill="#FCD375"/>
<path d="M197.013 255.895C196.435 256.839 196.387 257.786 196.758 258.778C196.805 258.836 196.852 258.894 196.899 258.951C196.946 259.009 203.574 264.894 209.798 274.068C215.519 282.502 222.128 295.526 221.053 309.589C221.042 309.694 221.078 309.856 221.177 309.92C221.271 310.035 221.375 310.046 221.48 310.057C221.637 310.074 239.322 311.096 258.27 308.708C283.82 305.484 299.406 297.874 304.632 286.101C309.582 274.934 309.6 247.428 304.727 216.126C299.853 184.824 291.594 159.459 283.665 151.374C280.942 148.6 278.175 147.726 275.569 148.826C262.764 154.191 246.544 165.278 242.273 187.467C238.241 208.412 242.722 237.927 243.404 241.966C238.505 242.718 201.6 248.128 197.013 255.895ZM243.937 242.922C244.048 242.881 244.158 242.84 244.221 242.74C244.285 242.641 244.296 242.537 244.313 242.38C244.242 242.055 238.818 209.954 243.094 187.713C247.32 165.942 263.204 155.031 275.841 149.754C278.116 148.778 280.516 149.613 282.953 152.092C299.968 169.337 314.319 261.787 303.712 285.792C292.126 312.022 227.997 309.529 221.941 309.207C222.87 295.022 216.256 282.051 210.488 273.559C204.58 264.894 198.365 259.106 197.542 258.384C197.294 257.724 197.414 257.101 197.806 256.402C202.399 248.583 243.513 242.93 243.937 242.922Z" fill="#FCD375"/>
<path d="M184.567 160.002C200.52 160.894 224.259 124.995 224.259 124.995C227.004 121.105 195.981 118.991 188.106 126.782C180.232 134.573 168.614 159.11 184.567 160.002Z" fill="#191446"/>
<path d="M183.783 160.395C184.045 160.423 184.255 160.445 184.517 160.473C191.254 160.867 200.085 155.029 210.727 143.139C218.539 134.442 224.471 125.493 224.656 125.248C225.089 124.659 224.952 123.957 224.322 123.414C220.725 120.389 195.225 119.122 187.773 126.429C184.693 129.489 181.21 134.835 178.949 140.151C176.21 146.475 175.467 151.951 176.787 155.476C177.853 158.393 180.222 160.019 183.783 160.395ZM188.387 127.129C193.419 122.159 207.532 121.428 216.383 122.364C219.997 122.745 222.786 123.411 223.709 124.196C224.1 124.502 223.978 124.648 223.909 124.799C223.661 125.143 200.087 160.478 184.611 159.583C180.975 159.411 178.7 157.901 177.658 155.251C174.89 147.922 182.29 133.151 188.387 127.129Z" fill="#191446"/>
<path d="M112.166 52.2835C109.835 60.24 127.231 64.9878 127.231 64.9878C122.281 70.1805 122.231 73.1386 124.175 74.7729C127.811 73.4633 132.349 68.6506 133.874 66.2714C134.018 65.9162 134.162 65.561 134.358 65.2113C134.335 65.4206 134.134 65.8226 133.874 66.2714C131.988 71.0468 137.377 71.6688 137.377 71.6688C137.377 71.6688 138.766 74.0383 140.064 76.7685C153.273 79.0631 219.711 90.3134 224.091 86.4895C228.94 82.2388 236.256 52.3704 232.459 48.7412C228.662 45.112 225.66 52.8919 225.66 52.8919C225.66 52.8919 222.665 23.3633 212.983 20.2769C203.302 17.1906 202.166 25.8555 202.166 25.8555C202.166 25.8555 171.892 9.7456 161.549 13.3632C151.206 16.9807 156.478 25.158 156.478 25.158C156.478 25.158 133.948 24.8425 123.532 31.6276C113.11 38.465 127.094 44.9164 127.094 44.9164C127.094 44.9164 114.498 44.327 112.166 52.2835Z" fill="#504566"/>
<path d="M111.759 52.1347C111.335 53.6246 111.493 55.123 112.343 56.5887C115.058 61.4266 123.849 64.4189 126.465 65.2243C123.762 68.2199 122.504 70.5745 122.612 72.5439C122.663 73.5548 123.098 74.4474 123.921 75.1694C124.067 75.2906 124.224 75.3073 124.387 75.2715C127.418 74.1628 131.009 70.7848 133.08 68.2516C133.066 68.8851 133.266 69.4884 133.583 69.9981C134.526 71.5795 136.489 72.0513 137.164 72.1756C137.522 72.7955 138.683 74.8233 139.769 77.0548C139.81 77.165 139.956 77.2862 140.113 77.3028C147.547 78.6171 166.903 81.8785 185.429 84.4701C193.101 85.5449 199.218 86.2968 204.141 86.8167C222.42 88.7472 223.886 87.4202 224.465 86.9522C228.556 83.3622 233.819 63.8083 233.996 54.1956C234.047 51.2374 233.66 49.3972 232.795 48.565C231.832 47.6694 230.864 47.3027 229.83 47.564C228.093 47.9626 226.712 49.9865 225.921 51.4377C225.16 45.1656 221.72 22.7873 213.116 20.0265C209.889 18.9977 207.225 19.1398 205.184 20.4059C202.968 21.8124 202.13 24.2112 201.85 25.3458C197.582 23.1487 171.206 9.72614 161.42 13.085C158.011 14.2597 155.861 16.0436 155.075 18.4478C154.162 21.0504 155.157 23.6427 155.715 24.8659C151.585 24.8531 132.688 25.2387 123.287 31.443C120.439 33.312 119.058 35.3359 119.248 37.5258C119.484 40.7788 123.073 43.3806 125.266 44.6706C121.555 44.702 113.603 45.7673 111.759 52.1347ZM126.98 45.4866C127.19 45.5087 127.416 45.3739 127.438 45.1645C127.513 44.9607 127.378 44.7347 127.174 44.6603C127.122 44.6548 120.313 41.4485 120.056 37.3994C119.932 35.587 121.128 33.8081 123.686 32.1731C133.876 25.5229 156.149 25.7585 156.411 25.7861C156.568 25.8027 156.736 25.7147 156.806 25.5632C156.875 25.4117 156.891 25.2547 156.803 25.0867C156.809 25.0343 154.765 21.8549 155.838 18.7401C156.538 16.6443 158.509 15.0531 161.645 13.9555C171.71 10.4673 201.592 26.2712 201.895 26.4091C202.047 26.478 202.204 26.4946 202.32 26.401C202.436 26.3074 202.552 26.2138 202.568 26.0568C202.574 26.0044 203.077 22.7766 205.635 21.1415C207.45 20.0103 209.846 19.8929 212.817 20.8417C222.091 23.7791 225.148 52.7319 225.167 53.0514C225.197 53.2663 225.337 53.4399 225.547 53.462C225.756 53.4841 225.982 53.3493 226.052 53.1978C226.494 52.0274 228.108 48.8109 230.003 48.4289C230.706 48.2915 231.423 48.5259 232.141 49.2369C232.527 49.5951 233.148 50.7192 233.042 54.2007C232.814 64.2845 227.357 83.1828 223.793 86.2992C220.52 89.1816 176.865 82.8248 140.406 76.54C139.15 73.92 137.807 71.6085 137.755 71.6029C137.661 71.4872 137.562 71.4238 137.405 71.4072C137.405 71.4072 135.106 71.1115 134.256 69.6458C133.81 68.8578 133.811 67.8526 134.202 66.6766C134.525 66.1286 134.727 65.7266 134.76 65.4126C134.782 65.2032 134.648 64.9773 134.444 64.9028C134.24 64.8283 134.019 64.9109 133.892 65.1091C133.696 65.4589 133.494 65.861 133.408 66.1694C132.069 68.3035 127.762 72.929 124.22 74.3543C123.694 73.8225 123.436 73.2658 123.403 72.5745C123.326 70.8199 124.699 68.3719 127.559 65.3929C127.675 65.2993 127.697 65.0899 127.656 64.9797C127.62 64.8172 127.474 64.6959 127.317 64.6793C127.212 64.6683 115.948 61.5206 113.063 56.2943C112.348 55.0545 112.22 53.7709 112.563 52.5371C114.809 44.8891 126.875 45.4755 126.98 45.4866Z" fill="#504566"/>
<path d="M134.352 65.2379C134.15 65.6397 133.954 65.9892 133.869 66.2975C134.18 65.8545 134.324 65.4994 134.352 65.2379Z" fill="#191446"/>
<path d="M133.818 66.7686C133.975 66.7852 134.144 66.6972 134.265 66.5513C134.588 66.0036 134.79 65.6017 134.823 65.2878C134.846 65.0785 134.711 64.8527 134.507 64.7783C134.303 64.7038 134.083 64.7863 133.956 64.9845C133.759 65.3341 133.558 65.736 133.414 66.0911C133.339 66.2948 133.416 66.5675 133.62 66.6419C133.714 66.7576 133.766 66.7631 133.818 66.7686Z" fill="#191446"/>
<path d="M124.172 74.7953C127.67 77.7576 137.82 76.4482 137.82 76.4482C137.82 76.4482 138.652 76.589 140.107 76.8485C138.81 74.1185 137.42 71.7494 137.42 71.7494C137.42 71.7494 132.037 71.0751 133.917 66.3524C132.346 68.6735 127.813 73.4336 124.172 74.7953Z" fill="#191446"/>
<path d="M134.072 65.8926C133.874 65.7658 133.601 65.8429 133.474 66.0411C132.076 68.2219 127.59 73.0397 124.007 74.3546C123.845 74.3903 123.723 74.5362 123.706 74.6932C123.69 74.8502 123.725 75.0127 123.871 75.134C125.179 76.2775 127.346 76.8238 129.598 77.0616C133.264 77.4488 137.176 77.0153 137.769 76.9192L140.005 77.314C140.162 77.3306 140.324 77.2948 140.446 77.1489C140.567 77.003 140.584 76.8461 140.496 76.678C139.198 73.9481 137.757 71.5734 137.762 71.5211C137.669 71.4053 137.569 71.3419 137.412 71.3253C137.412 71.3253 135.114 71.0297 134.264 69.5641C133.818 68.7762 133.819 67.7708 134.267 66.5482C134.353 66.2397 134.271 66.0194 134.072 65.8926ZM137.114 72.1404C137.43 72.65 138.362 74.336 139.325 76.2368L137.922 75.9828C137.87 75.9773 137.817 75.9718 137.765 75.9662C137.66 75.9552 128.906 77.0943 125.12 74.8425C128.017 73.508 131.15 70.4523 133.036 68.1644C133.021 68.7978 133.222 69.401 133.538 69.9107C134.424 71.5388 136.438 72.0161 137.114 72.1404Z" fill="#191446"/>
<path d="M225.21 82.083C222.236 71.24 209.012 71.5895 206.575 78.0517C204.139 84.5139 202.089 81.3874 202.089 81.3874C200.046 73.2352 189.653 60.4449 189.653 60.4449C163.475 72.0191 164.83 57.8238 164.83 57.8238C152.724 76.4922 136.516 71.5532 136.516 71.5532C136.516 71.5532 146.273 112.16 159.897 124.445C173.521 136.73 184.248 127.016 184.248 127.016C184.248 127.016 184.43 127.3 184.705 127.699C186.703 125.847 191.122 121.657 192.531 119.372C194.147 116.633 190.843 128.241 187 133.497C187.356 135.122 187.387 136.818 186.842 138.454C185.132 143.564 182.756 149.451 191.851 146.602C200.946 143.753 215.933 126.87 212.425 121.526C208.865 116.176 209.606 101.281 209.606 101.281C219.823 102.307 228.133 92.9205 225.21 82.083Z" fill="#F9C09D"/>
<path d="M222.612 96.5172C225.997 92.5889 227.095 87.2553 225.652 81.9178C223.937 75.6521 219.011 73.1744 215.003 73.0157C210.89 72.846 207.351 74.7473 206.173 77.8504C204.984 81.058 203.974 81.5864 203.492 81.6413C203.009 81.6962 202.682 81.2912 202.541 81.1177C200.446 72.96 190.485 60.5856 190.064 60.065C189.924 59.8914 189.714 59.8692 189.546 59.9573C176.26 65.8558 170.376 64.9171 167.768 63.0544C165.113 61.1339 165.359 57.8266 165.359 57.8266C165.382 57.6173 165.241 57.4437 165.037 57.3693C164.834 57.2949 164.613 57.3775 164.491 57.5234C158.346 66.9801 151.12 70.1852 146.146 71.1414C140.736 72.2103 136.729 71.0465 136.729 71.0465C136.578 70.9776 136.409 71.0657 136.293 71.1592C136.178 71.2528 136.103 71.4567 136.138 71.6191C136.542 73.3019 146.077 112.509 159.654 124.736C171.924 135.82 182.049 129.27 184.234 127.649C184.281 127.707 184.322 127.817 184.363 127.927C184.457 128.043 184.556 128.107 184.707 128.176C184.812 128.187 184.975 128.151 185.091 128.057C187.141 126.21 190.505 122.968 192.286 120.669C191.497 123.602 189.245 129.819 186.76 133.26C186.697 133.359 186.68 133.516 186.669 133.621C187.061 135.408 186.998 136.989 186.539 138.316L186.309 138.979C185.23 142.146 184.14 145.417 185.67 146.954C186.097 147.423 186.709 147.646 187.547 147.734C188.699 147.856 190.21 147.592 192.179 147.006C199.247 144.79 210.375 133.796 213.017 126.403C213.781 124.209 213.808 122.465 212.982 121.267C209.931 116.606 210.126 104.352 210.19 101.766C214.873 102.049 219.523 100.159 222.612 96.5172ZM209.714 100.764C209.609 100.753 209.447 100.788 209.383 100.887C209.267 100.981 209.256 101.086 209.245 101.19C209.23 101.824 208.592 116.253 212.141 121.707C212.779 122.674 212.728 124.15 212.05 126.036C209.477 133.278 198.702 143.939 191.797 146.12C188.893 147.03 187.032 147.098 186.272 146.277C185.127 145.098 186.2 141.984 187.13 139.225L187.36 138.561C187.836 137.077 187.904 135.444 187.576 133.558C190.754 129.078 193.87 119.725 193.389 118.775C193.301 118.607 193.155 118.486 192.945 118.464C192.579 118.425 192.382 118.775 192.192 119.072C190.905 121.211 186.897 125.02 184.894 126.925C184.806 126.757 184.759 126.699 184.759 126.699C184.665 126.584 184.514 126.515 184.409 126.504C184.304 126.493 184.142 126.528 184.078 126.628C183.667 127.007 173.506 135.881 160.308 124.065C147.94 112.917 138.62 77.6482 137.246 72.1593C138.696 72.4711 142.03 72.982 146.307 72.1108C151.281 71.1546 158.334 68.0899 164.522 59.2197C164.703 60.5086 165.34 62.4805 167.207 63.8417C171.192 66.6964 178.708 65.7439 189.539 61.0147C191.031 62.9183 199.835 74.2182 201.653 81.5C201.648 81.5523 201.694 81.6102 201.694 81.6102C201.741 81.668 202.426 82.6927 203.548 82.5996C204.781 82.4652 205.938 81.0529 206.983 78.2004C208.018 75.4526 211.215 73.7797 214.903 73.9575C218.643 74.1408 223.167 76.4173 224.722 82.19C226.094 87.2025 225.029 92.2223 221.877 95.9634C218.851 99.5063 214.427 101.261 209.714 100.764Z" fill="#F9C09D"/>
<path d="M192.6 119.323C191.244 121.613 186.769 125.848 184.777 127.648C185.404 128.719 186.548 130.903 187.077 133.392C190.914 128.19 194.216 116.584 192.6 119.323Z" fill="#E68262"/>
<path d="M186.974 133.858C187.026 133.863 187.026 133.863 186.974 133.858C187.183 133.88 187.352 133.792 187.415 133.693C190.634 129.325 193.829 119.717 193.348 118.767C193.26 118.599 193.114 118.478 192.904 118.456C192.538 118.417 192.342 118.767 192.151 119.064C190.795 121.354 186.32 125.589 184.444 127.295C184.27 127.436 184.242 127.697 184.383 127.871C185.01 128.942 186.159 131.074 186.641 133.505C186.671 133.72 186.817 133.841 186.974 133.858ZM192.251 120.608C191.543 123.284 189.521 128.837 187.293 132.357C186.755 130.449 185.928 128.775 185.347 127.761C187.403 125.862 190.587 122.813 192.251 120.608Z" fill="#E68262"/>
<path d="M197.051 232.457C200.812 234.441 224.957 237.469 225.889 234.182C226.822 230.895 227.912 198.794 227.912 198.794C217.57 203.414 199.806 198.151 199.806 198.151C199.651 201.097 193.291 230.473 197.051 232.457Z" fill="#E46790"/>
<path d="M196.85 232.859C198.651 233.843 204.519 234.939 210.489 235.57C216.617 236.218 222.852 236.347 225.18 235.377C225.789 235.124 226.2 234.744 226.303 234.279C227.236 230.992 228.302 200.105 228.337 198.786C228.354 198.629 228.266 198.461 228.114 198.392C227.963 198.323 227.806 198.306 227.695 198.348C217.631 202.839 200.113 197.76 199.909 197.686C199.757 197.617 199.647 197.658 199.531 197.752C199.415 197.845 199.352 197.944 199.335 198.101C199.32 198.735 198.941 200.81 198.447 203.456C195.513 220.55 194.197 231.415 196.85 232.859ZM199.378 203.66C199.775 201.428 200.064 199.712 200.216 198.776C203.198 199.62 217.901 203.29 227.41 199.534C227.222 204.275 226.26 231.206 225.424 234.08C225.355 234.231 225.175 234.424 224.792 234.542C220.468 236.36 200.711 233.902 197.201 232.05C194.647 230.669 197.991 211.713 199.378 203.66Z" fill="#E46790"/>
<path d="M225.406 307.487C227.882 304.627 230.086 289.413 223.788 278.431C217.549 267.403 213.999 261.949 201.185 259.431C195.637 258.316 183.834 261.724 183.113 265.509C183.113 265.509 194.363 268.285 201.082 282.274C207.8 296.263 206.459 306.86 205.205 309.69C203.95 312.52 222.93 310.346 225.406 307.487Z" fill="#2893D0"/>
<path d="M205.25 310.753C205.647 311.006 206.317 311.183 207.207 311.277C212.182 311.803 223.749 310.116 225.745 307.787C228.469 304.584 230.387 289.074 224.183 278.208C217.855 267.012 214.2 261.547 201.282 259.018C196.922 258.187 189.06 259.895 185.066 262.594C183.697 263.508 182.905 264.482 182.689 265.517C182.661 265.779 182.796 266.005 183.005 266.027C183.11 266.038 194.139 268.896 200.682 282.549C207.054 295.813 206.184 306.461 204.797 309.541C204.595 309.943 204.754 310.436 205.25 310.753ZM201.476 282.051C195.492 269.621 185.878 265.907 183.676 265.199C183.952 264.593 184.554 263.916 185.522 263.278C189.286 260.766 196.938 259.035 201.088 259.844C213.64 262.334 217.201 267.683 223.399 278.602C229.598 289.52 227.248 304.613 225.067 307.186C222.955 309.608 207.882 311.401 205.753 310.012C205.601 309.943 205.607 309.891 205.665 309.844C206.787 307.265 208.547 296.712 201.476 282.051Z" fill="#2893D0"/>
<path d="M179.878 325.356L163.301 220.047L33.991 213.323L32.8353 213.73L50.7876 304.157L179.026 325.901L179.878 325.356Z" fill="#C0C3D6"/>
<path d="M50.6906 304.57L178.928 326.314C178.928 326.314 178.928 326.314 178.981 326.32C179.086 326.331 179.196 326.29 179.254 326.243L180.159 325.703C180.327 325.615 180.402 325.412 180.366 325.249L163.789 219.94C163.759 219.725 163.613 219.603 163.351 219.576L34.0413 212.852C33.9889 212.847 33.9365 212.841 33.8785 212.888L32.7228 213.295C32.5022 213.378 32.3751 213.576 32.4052 213.791L50.3574 304.217C50.3875 304.432 50.5334 304.553 50.6906 304.57ZM34.0456 213.805L162.884 220.479L179.377 325.092L178.866 325.408L51.1464 303.771L33.3312 214.047L34.0456 213.805Z" fill="#C0C3D6"/>
<path d="M187.476 320.658L172.658 214.741L39.8796 211.25L33.991 213.327L163.3 220.05L179.877 325.359L187.476 320.658Z" fill="#9FA3B5"/>
<path d="M33.9409 213.798L162.883 220.483L179.395 325.414C179.43 325.577 179.524 325.692 179.676 325.761C179.728 325.767 179.78 325.772 179.833 325.778C179.938 325.789 180.048 325.748 180.106 325.701L187.704 321C187.872 320.912 187.947 320.708 187.912 320.545L173.094 214.629C173.064 214.414 172.871 214.235 172.656 214.265L39.8774 210.774C39.825 210.768 39.7726 210.763 39.7147 210.809L33.8261 212.886C33.6055 212.969 33.4784 213.167 33.5085 213.382C33.5909 213.602 33.679 213.77 33.9409 213.798ZM39.9341 211.732L172.294 215.179L187.027 320.399L180.275 324.607L163.783 219.996C163.753 219.781 163.607 219.66 163.397 219.637L36.3513 213.047L39.9341 211.732Z" fill="#9FA3B5"/>
<path d="M175.806 100.836C176.854 100.947 177.871 100.843 178.916 100.477C184.142 98.6491 186.194 90.8251 183.482 82.9738C182.185 79.2396 180.036 76.0499 177.392 74.0248C174.654 71.8839 171.656 71.1968 169.072 72.0875C166.488 72.9782 164.539 75.3644 163.752 78.7727C162.93 82.0185 163.209 85.8567 164.506 89.591C166.635 95.9524 171.303 100.36 175.806 100.836ZM165.453 79.2169C166.12 76.4308 167.594 74.5235 169.627 73.839C170.394 73.6026 171.149 73.4709 171.987 73.5594C173.401 73.7089 174.817 74.3346 176.235 75.4367C178.582 77.2717 180.55 80.1776 181.723 83.5814C184.116 90.4468 182.542 97.2633 178.251 98.7671C173.96 100.271 168.496 95.8846 166.103 89.0192C164.982 85.6209 164.722 82.102 165.453 79.2169Z" fill="#191446"/>
<path d="M152.741 109.976C153.788 110.086 154.811 109.93 155.699 109.548C157.922 108.565 159.347 106.124 159.652 102.77C159.94 99.5733 159.225 95.8474 157.65 92.2423C156.076 88.6372 153.747 85.6403 151.203 83.6787C148.455 81.6426 145.76 81.0935 143.485 82.0701C138.981 84.081 138.12 91.6612 141.534 99.3754C144.271 105.484 148.709 109.55 152.741 109.976ZM144.213 83.6813C144.823 83.4282 145.526 83.2908 146.259 83.3683C147.463 83.4954 148.728 84.0522 150.099 85.0964C152.404 86.8211 154.539 89.6388 155.99 92.9134C157.441 96.188 158.132 99.6468 157.877 102.53C157.64 105.256 156.595 107.103 154.982 107.832C151.535 109.372 146.107 105.149 143.205 98.5996C140.302 92.0504 140.766 85.2218 144.213 83.6813Z" fill="#191446"/>
<path d="M161.554 101.388C162.655 100.499 163.929 99.4698 164.072 97.6334C164.26 95.3784 162.728 92.36 159.156 88.1209C158.829 87.716 158.247 87.7075 157.894 88.0405C157.488 88.368 157.479 88.949 157.813 89.3015C160.964 93.02 162.47 95.7714 162.344 97.4509C162.227 98.5495 161.416 99.2045 160.489 99.953C159.62 100.655 158.693 101.403 158.251 102.573C157.952 103.388 158.078 104.195 158.534 104.878C159.64 106.423 162.591 107.052 164.79 107.285C165.89 107.401 166.838 107.448 167.21 107.434C167.687 107.432 168.098 107.052 168.154 106.529C168.152 106.052 167.824 105.648 167.248 105.587C164.713 105.531 160.797 105.011 160.024 103.819C159.936 103.651 159.848 103.483 159.992 103.127C160.163 102.511 160.806 101.944 161.554 101.388Z" fill="#62392C"/>
<path d="M164.723 88.0218C165.205 87.9669 165.57 87.5292 165.515 87.0472C165.461 86.5652 165.023 86.2016 164.54 86.2565C160.314 86.6567 157.55 87.7406 156.203 89.4503C155.283 90.6232 155.439 91.645 155.428 91.7497C155.488 92.1793 155.827 92.4797 156.193 92.5184C156.246 92.5239 156.35 92.535 156.403 92.5405C156.885 92.4857 157.25 92.0479 157.195 91.5659C157.264 91.4145 157.13 88.7016 164.723 88.0218Z" fill="#191446"/>
<path d="M181.09 80.0863C181.195 80.0974 181.248 80.1029 181.358 80.0616C181.521 80.0258 198.145 77.1236 205.807 78.3039C206.325 78.4116 206.789 78.037 206.839 77.5658C206.895 77.0422 206.573 76.5846 206.101 76.5347C198.184 75.2744 181.768 78.1989 181.065 78.3364C180.577 78.4436 180.265 78.8871 180.319 79.3693C180.385 79.7469 180.724 80.0476 181.09 80.0863Z" fill="#191446"/>
<path d="M152.56 98.2658C152.061 98.4776 150.018 96.7806 148.268 94.3208C147.993 93.9215 147.423 93.8082 147.023 94.0834C146.623 94.3586 146.509 94.9286 146.784 95.328C147.563 96.4683 150.119 99.8069 152.266 100.034C152.58 100.067 152.9 100.048 153.178 99.9182C154.839 99.2471 155.286 96.5432 154.488 91.1155C154.433 90.6336 153.943 90.2644 153.461 90.3192C152.978 90.3741 152.608 90.8641 152.663 91.3461C153.675 97.7487 152.56 98.2658 152.56 98.2658Z" fill="#62392C"/>
<path d="M175.073 90.8136C174.033 91.1271 171.333 88.1436 169.575 85.2597C169.306 84.808 168.735 84.6948 168.335 84.97C167.883 85.2397 167.769 85.8097 168.044 86.2091C168.993 87.7379 171.998 92.3406 174.721 92.6282C175.035 92.6614 175.355 92.6422 175.628 92.5652C177.655 91.9327 178.397 88.9424 178.096 82.8263C178.094 82.3499 177.662 81.9339 177.127 81.9833C176.65 81.9858 176.233 82.418 176.282 82.9522C176.576 90.1258 175.236 90.7779 175.073 90.8136Z" fill="#62392C"/>
<path d="M170.312 117.178C171.097 117.261 171.9 117.187 172.678 116.845C174.233 116.163 175.151 114.514 175.471 112.008C175.526 111.485 175.199 111.08 174.681 110.972C174.267 110.875 173.751 111.244 173.643 111.762C173.396 113.588 172.848 114.747 171.902 115.176C170.509 115.823 168.347 114.748 167.652 114.304C167.256 114.051 166.663 114.147 166.409 114.543C166.155 114.94 166.25 115.532 166.647 115.785C166.694 115.843 168.374 116.973 170.312 117.178Z" fill="#62392C"/>
<path d="M214.88 79.6908C214.426 79.4841 213.874 79.6903 213.667 80.1446L209.994 88.2745C209.861 88.525 209.88 88.8444 210.015 89.0702C210.149 89.2961 210.394 89.4807 210.709 89.5138L217.359 90.2161C217.883 90.2714 218.294 89.8916 218.344 89.4208C218.394 88.9499 218.02 88.4872 217.549 88.4374L212.103 87.8623L215.229 80.8915C215.546 80.396 215.335 79.8976 214.88 79.6908Z" fill="#62392C"/>
<path d="M141.523 80.0154C141.837 80.0485 142.116 79.9193 142.301 79.6743C142.359 79.6275 143.753 77.9754 147.144 77.9631C147.621 77.9605 148.038 77.5283 148.036 77.0518C148.034 76.5754 147.601 76.1593 147.124 76.1618C142.832 76.1847 140.946 78.4728 140.882 78.5719C140.576 78.9629 140.625 79.4972 141.01 79.8554C141.162 79.9243 141.313 79.9932 141.523 80.0154Z" fill="#62392C"/>
<path d="M161.599 71.5648C161.966 71.6035 162.355 71.433 162.498 71.0777C162.504 71.0254 163.963 68.2691 168.024 68.4334C168.501 68.4308 168.964 68.0564 168.962 67.58C168.96 67.1035 168.69 66.6518 168.109 66.6433C162.89 66.4097 161.011 70.127 160.889 70.2729C160.682 70.7272 160.836 71.2726 161.29 71.4793C161.39 71.5427 161.494 71.5537 161.599 71.5648Z" fill="#62392C"/>
</g>
<defs>
<filter id="filter0_dd_82_741" x="0.400787" y="0.548462" width="339.962" height="377.773" filterUnits="userSpaceOnUse" color-interpolation-filters="sRGB">
<feFlood flood-opacity="0" result="BackgroundImageFix"/>
<feColorMatrix in="SourceAlpha" type="matrix" values="0 0 0 0 0 0 0 0 0 0 0 0 0 0 0 0 0 0 127 0" result="hardAlpha"/>
<feMorphology radius="8" operator="erode" in="SourceAlpha" result="effect1_dropShadow_82_741"/>
<feOffset dy="20"/>
<feGaussianBlur stdDeviation="20"/>
<feColorMatrix type="matrix" values="0 0 0 0 0.0627451 0 0 0 0 0.0941176 0 0 0 0 0.156863 0 0 0 0.1 0"/>
<feBlend mode="normal" in2="BackgroundImageFix" result="effect1_dropShadow_82_741"/>
<feColorMatrix in="SourceAlpha" type="matrix" values="0 0 0 0 0 0 0 0 0 0 0 0 0 0 0 0 0 0 127 0" result="hardAlpha"/>
<feMorphology radius="8" operator="erode" in="SourceAlpha" result="effect2_dropShadow_82_741"/>
<feOffset dy="20"/>
<feGaussianBlur stdDeviation="20"/>
<feColorMatrix type="matrix" values="0 0 0 0 0.0627451 0 0 0 0 0.0941176 0 0 0 0 0.156863 0 0 0 0.05 0"/>
<feBlend mode="normal" in2="effect1_dropShadow_82_741" result="effect2_dropShadow_82_741"/>
<feBlend mode="normal" in="SourceGraphic" in2="effect2_dropShadow_82_741" result="shape"/>
</filter>
</defs>
</svg>
