<svg width="102" height="30" viewBox="0 0 102 30" fill="none" xmlns="http://www.w3.org/2000/svg">
<path d="M98.2398 18.3343L101.041 20.0252C100.132 21.2377 97.9574 23.318 94.1983 23.318C89.5304 23.318 86.0542 20.0475 86.0542 15.887C86.0542 11.4597 89.5673 8.45609 93.8053 8.45609C98.0678 8.45609 100.156 11.5263 100.832 13.1838L101.2 14.0293L90.2184 18.1452C91.0537 19.6359 92.356 20.3923 94.1983 20.3923C96.0411 20.3923 97.3185 19.5691 98.2398 18.3343ZM89.6288 15.6536L96.9624 12.8947C96.5569 11.9714 95.3533 11.3152 93.9158 11.3152C92.0856 11.3152 89.5429 12.7836 89.6288 15.6536Z" fill="#363636"/>
<path d="M80.7599 0.880585H84.2975V22.6395H80.7599V0.880585Z" fill="#363636"/>
<path d="M75.183 9.03444H78.5979V22.25C78.5979 27.7341 75.0232 29.9923 70.7975 29.9923C66.8176 29.9923 64.4223 27.5673 63.5255 25.5984L66.6578 24.4191C67.2228 25.6316 68.5864 27.0668 70.7975 27.0668C73.5122 27.0668 75.183 25.5427 75.183 22.695V21.6271H75.0601C74.2493 22.5169 72.7015 23.3178 70.7361 23.3178C66.6332 23.3178 62.8741 20.0807 62.8741 15.9093C62.8741 11.7153 66.6332 8.44498 70.7361 8.44498C72.6893 8.44498 74.2493 9.2348 75.0601 10.1025H75.183V9.03444ZM75.4285 15.9093C75.4285 13.2839 73.5 11.3705 71.0432 11.3705C68.5617 11.3705 66.4735 13.2839 66.4735 15.9093C66.4735 18.501 68.5617 20.381 71.0432 20.381C73.5002 20.3923 75.4287 18.501 75.4287 15.9093" fill="#363636"/>
<path d="M43.4532 15.8536C43.4532 20.1364 39.7681 23.2844 35.2475 23.2844C30.7271 23.2844 27.0418 20.1253 27.0418 15.8536C27.0418 11.5486 30.7271 8.41159 35.2475 8.41159C39.7681 8.41159 43.4532 11.5486 43.4532 15.8536ZM39.8663 15.8536C39.8663 13.1839 37.7287 11.3482 35.2475 11.3482C32.7662 11.3482 30.6287 13.1839 30.6287 15.8536C30.6287 18.5011 32.7662 20.3589 35.2475 20.3589C37.7289 20.3589 39.8663 18.5011 39.8663 15.8536Z" fill="#363636"/>
<path d="M61.3756 15.887C61.3756 20.1698 57.6903 23.3179 53.1699 23.3179C48.6493 23.3179 44.9642 20.1697 44.9642 15.887C44.9642 11.582 48.6493 8.45609 53.1699 8.45609C57.6903 8.45609 61.3756 11.5709 61.3756 15.887ZM57.7762 15.887C57.7762 13.2173 55.6389 11.3816 53.1574 11.3816C50.6762 11.3816 48.5386 13.2173 48.5386 15.887C48.5386 18.5345 50.6762 20.3923 53.1574 20.3923C55.6511 20.3923 57.7762 18.5234 57.7762 15.887Z" fill="#363636"/>
<path d="M13.554 20.0586C8.40696 20.0586 4.37797 16.2985 4.37797 11.6375C4.37797 6.97659 8.40696 3.21659 13.554 3.21659C16.3303 3.21659 18.357 4.20659 19.8556 5.4748L22.3249 3.23891C20.2366 1.42569 17.4481 0.046051 13.554 0.046051C6.50309 0.0462296 0.569824 5.25248 0.569824 11.6375C0.569824 18.0228 6.50309 23.2289 13.554 23.2289C17.3622 23.2289 20.2366 22.0943 22.4846 19.9807C24.7939 17.8893 25.5063 14.9525 25.5063 12.5719C25.5063 11.8266 25.4081 11.0591 25.2975 10.4918H13.554V13.5843H21.9194C21.6737 15.52 20.9982 16.8437 20.0031 17.7446C18.7993 18.8461 16.8954 20.0586 13.554 20.0586Z" fill="#363636"/>
</svg>
