<svg width="40" height="40" viewBox="0 0 40 40" fill="none" xmlns="http://www.w3.org/2000/svg">
<path d="M29.2188 16.6094C29.2188 16.7891 29.2109 16.9688 29.2031 17.1562C29.0547 19.8594 27.8047 22.2578 25.8906 23.9297C24 25.5703 22.9375 27.9688 22.9375 30.4766V30.7031H19.5156V7.73437C19.5156 7.27344 19.9063 6.90625 20.3672 6.94531C24.2422 7.28125 27.4609 9.89844 28.6875 13.4453C29.0313 14.4375 29.2188 15.5 29.2188 16.6094Z" fill="#FFA91E"/>
<path d="M26.7812 17.2344C26.4375 17.2344 26.1562 16.9531 26.1562 16.6094C26.1562 15.8672 26.0313 15.1406 25.7969 14.4453C25.1328 12.5313 23.6641 11.0391 21.75 10.3594C21.4219 10.2422 21.2578 9.88282 21.3672 9.55469C21.4844 9.22657 21.8437 9.05469 22.1719 9.17188C24.4375 9.98438 26.1953 11.75 26.9766 14.0313C27.2578 14.8594 27.4062 15.7188 27.4062 16.6016C27.4062 16.9531 27.125 17.2344 26.7812 17.2344Z" fill="#F79303"/>
<path d="M14.4062 6.32031C12.8594 6.32031 11.5 7.29687 10.9844 8.71094C10.9063 8.70312 10.8281 8.70312 10.7578 8.70312C8.39844 8.70312 6.47656 10.6172 6.47656 12.9844C6.47656 13.4453 6.55469 13.9141 6.70312 14.3516C4.97656 15.1484 3.85938 16.8672 3.85938 18.8203C3.85938 20.7734 4.97656 22.4844 6.70312 23.2891C6.55469 23.7266 6.47656 24.1953 6.47656 24.6562C6.47656 27.0156 8.39844 28.9375 10.7578 28.9375C10.8359 28.9375 10.9063 28.9297 10.9844 28.9297C11.5 30.3516 12.8594 31.3281 14.4062 31.3281C16.4219 31.3281 18.0547 29.6875 18.0547 27.6797V9.96875C18.0547 7.95312 16.4219 6.32031 14.4062 6.32031ZM16.7969 27.6797C16.7969 29 15.7266 30.0703 14.4062 30.0703C13.2578 30.0703 12.2734 29.25 12.0547 28.125C12.0391 28.0312 11.9141 27.2422 12.3828 26.7656C12.5 26.6563 12.6406 26.5625 12.8047 26.5C13.125 26.375 13.2891 26.0156 13.1719 25.6953C13.0469 25.3672 12.6797 25.2109 12.3594 25.3281C12.0312 25.4531 11.7344 25.6406 11.5 25.8828C10.9922 26.3906 10.8047 27.0625 10.7734 27.6719C9.08594 27.6953 7.72656 26.3281 7.72656 24.6484C7.72656 24.1484 7.85156 23.6719 8.07812 23.2344C8.30469 22.8672 8.59375 22.5469 8.9375 22.2891C9.3125 22.0078 9.72656 21.8125 10.1797 21.6953C10.5156 21.6094 10.7188 21.2656 10.6328 20.9375C10.5469 20.6016 10.2031 20.3984 9.875 20.4844C9.25781 20.6406 8.69531 20.9219 8.1875 21.2969C7.85156 21.5547 7.55469 21.8516 7.30469 22.1797C5.97656 21.6016 5.11719 20.2969 5.11719 18.8203C5.11719 17.1875 6.16406 15.7734 7.71875 15.3047L7.72656 15.2969C7.96875 15.2266 8.46094 15.125 9.02344 15.2891C9.60156 15.4609 9.96094 15.8125 10.1328 16.0156C10.2578 16.1641 10.4375 16.2344 10.6094 16.2344C10.75 16.2344 10.8906 16.1875 11.0078 16.0859C11.2734 15.8672 11.3047 15.4688 11.0859 15.2031C10.6406 14.6719 10.0312 14.2734 9.36719 14.0859C8.8125 13.9297 8.32031 13.9297 7.90625 13.9844C7.79687 13.6641 7.73438 13.3281 7.73438 12.9844C7.73438 11.3125 9.09375 9.96094 10.7578 9.96094C10.9453 9.96094 11.1328 9.97656 11.3281 10.0156H11.3359C11.6563 10.0703 12.1328 10.2188 12.5859 10.5859C12.8516 10.7969 13.0703 11.0547 13.2422 11.3516C13.3594 11.5547 13.5703 11.6641 13.7812 11.6641C13.8906 11.6641 14 11.6406 14.1016 11.5781C14.3984 11.4062 14.5 11.0156 14.3281 10.7187C14.0781 10.2891 13.75 9.91406 13.3672 9.60156C13.0312 9.32812 12.6406 9.125 12.2422 8.97656C12.625 8.14062 13.4609 7.57031 14.4141 7.57031C15.7344 7.57031 16.8047 8.64062 16.8047 9.96094V27.6797H16.7969Z" fill="#CFD6E5"/>
<path d="M16.7969 9.96875V27.6797C16.7969 29 15.7266 30.0703 14.4062 30.0703C13.2578 30.0703 12.2734 29.25 12.0547 28.125C12.0391 28.0312 11.9141 27.2422 12.3828 26.7656C12.5 26.6563 12.6406 26.5625 12.8047 26.5C13.125 26.375 13.2891 26.0156 13.1719 25.6953C13.0469 25.3672 12.6797 25.2109 12.3594 25.3281C12.0312 25.4531 11.7344 25.6406 11.5 25.8828C10.9922 26.3906 10.8047 27.0625 10.7734 27.6719C9.08594 27.6953 7.72656 26.3281 7.72656 24.6484C7.72656 24.1484 7.85156 23.6719 8.07812 23.2344C8.30469 22.8672 8.59375 22.5469 8.9375 22.2891C9.3125 22.0078 9.72656 21.8125 10.1797 21.6953C10.5156 21.6094 10.7188 21.2656 10.6328 20.9375C10.5469 20.6016 10.2031 20.3984 9.875 20.4844C9.25781 20.6406 8.69531 20.9219 8.1875 21.2969C7.85156 21.5547 7.55469 21.8516 7.30469 22.1797C5.97656 21.6016 5.11719 20.2969 5.11719 18.8203C5.11719 17.1875 6.16406 15.7734 7.71875 15.3047L7.72656 15.2969C7.96875 15.2266 8.46094 15.125 9.02344 15.2891C9.60156 15.4609 9.96094 15.8125 10.1328 16.0156C10.2578 16.1641 10.4375 16.2344 10.6094 16.2344C10.75 16.2344 10.8906 16.1875 11.0078 16.0859C11.2734 15.8672 11.3047 15.4688 11.0859 15.2031C10.6406 14.6719 10.0312 14.2734 9.36719 14.0859C8.8125 13.9297 8.32031 13.9297 7.90625 13.9844C7.79687 13.6641 7.73438 13.3281 7.73438 12.9844C7.73438 11.3125 9.09375 9.96094 10.7578 9.96094C10.9453 9.96094 11.1328 9.97656 11.3281 10.0156H11.3359C11.6563 10.0703 12.1328 10.2188 12.5859 10.5859C12.8516 10.7969 13.0703 11.0547 13.2422 11.3516C13.3594 11.5547 13.5703 11.6641 13.7812 11.6641C13.8906 11.6641 14 11.6406 14.1016 11.5781C14.3984 11.4062 14.5 11.0156 14.3281 10.7187C14.0781 10.2891 13.75 9.91406 13.3672 9.60156C13.0313 9.32812 12.6406 9.125 12.2422 8.97656C12.625 8.14062 13.4609 7.57031 14.4141 7.57031C15.7266 7.57031 16.7969 8.64844 16.7969 9.96875Z" fill="#D9E0ED"/>
<path d="M27.9297 8.91406C27.7656 8.91406 27.6094 8.85156 27.4844 8.73438C27.2422 8.49219 27.2422 8.09375 27.4844 7.85156L30.3906 4.94531C30.6328 4.70312 31.0312 4.70312 31.2734 4.94531C31.5156 5.1875 31.5156 5.58594 31.2734 5.82812L28.375 8.72656C28.2578 8.85156 28.0938 8.91406 27.9297 8.91406ZM35.5156 17.3281H31.4219C31.0781 17.3281 30.7969 17.0469 30.7969 16.7031C30.7969 16.3594 31.0781 16.0781 31.4219 16.0781H35.5156C35.8594 16.0781 36.1406 16.3594 36.1406 16.7031C36.1406 17.0469 35.8594 17.3281 35.5156 17.3281ZM30.8281 28.6328C30.6641 28.6328 30.5078 28.5703 30.3828 28.4531L27.4844 25.5547C27.2422 25.3125 27.2422 24.9141 27.4844 24.6719C27.7266 24.4297 28.125 24.4297 28.3672 24.6719L31.2656 27.5703C31.5078 27.8125 31.5078 28.2109 31.2656 28.4531C31.1484 28.5703 30.9922 28.6328 30.8281 28.6328ZM19.5234 5.42969C19.1797 5.42969 18.8984 5.14844 18.8984 4.80469V0.703125C18.8984 0.359375 19.1797 0.078125 19.5234 0.078125C19.8672 0.078125 20.1484 0.359375 20.1484 0.703125V4.79688C20.1484 5.14844 19.8672 5.42969 19.5234 5.42969Z" fill="#F79303"/>
<path d="M25.3125 32.3047C25.3125 32.75 25.1328 33.1484 24.8438 33.4375C24.5547 33.7266 24.1562 33.9063 23.7109 33.9063H12.3047C11.7188 33.9063 11.2109 33.5938 10.9297 33.125C11.1719 33.2734 11.4531 33.3516 11.7578 33.3516H23.1641C23.6094 33.3516 24.0078 33.1719 24.2969 32.8828C24.5859 32.5938 24.7656 32.1953 24.7656 31.75C24.7656 31.4531 24.6797 31.1641 24.5391 30.9297C25 31.2109 25.3125 31.7188 25.3125 32.3047ZM25.3125 35.5156C25.3125 35.9609 25.1328 36.3594 24.8438 36.6484C24.5547 36.9375 24.1562 37.1172 23.7109 37.1172H12.3047C11.7188 37.1172 11.2109 36.8047 10.9297 36.3359C11.1719 36.4844 11.4531 36.5625 11.75 36.5625H23.1562C23.6016 36.5625 24 36.3828 24.2891 36.0938C24.5781 35.8047 24.7578 35.4063 24.7578 34.9609C24.7578 34.6563 24.6719 34.375 24.5312 34.1328C25 34.4219 25.3125 34.9375 25.3125 35.5156Z" fill="#0082BD"/>
<path d="M24.7578 31.75C24.7578 32.1953 24.5781 32.6016 24.2891 32.8828C24 33.1719 23.6016 33.3516 23.1562 33.3516H11.75C11.4531 33.3516 11.1641 33.2656 10.9219 33.125C10.7813 32.8828 10.6953 32.6016 10.6953 32.3047C10.6953 31.8594 10.875 31.4531 11.1641 31.1719C11.4531 30.8828 11.8594 30.7031 12.2969 30.7031H23.7031C24.0078 30.7031 24.2891 30.7891 24.5234 30.9297C24.6719 31.1641 24.7578 31.4531 24.7578 31.75ZM24.7578 34.9688C24.7578 35.4141 24.5781 35.8125 24.2891 36.1016C24 36.3906 23.6016 36.5703 23.1562 36.5703H11.75C11.4531 36.5703 11.1719 36.4844 10.9297 36.3438C10.7812 36.1094 10.7031 35.8203 10.7031 35.5234C10.7031 35.0781 10.8828 34.6719 11.1719 34.3906C11.4609 34.1016 11.8672 33.9219 12.3047 33.9219H23.7109C24.0156 33.9219 24.2969 34.0078 24.5312 34.1484C24.6719 34.375 24.7578 34.6641 24.7578 34.9688Z" fill="#48BBED"/>
<path d="M22.4141 37.125V37.8828C22.4141 39.0078 21.5 39.9219 20.375 39.9219H15.6328C14.9219 39.9219 14.2891 39.5547 13.9297 39C14.25 39.2188 14.6328 39.3437 15.0547 39.3437H19.7969C20.9219 39.3437 21.8359 38.4297 21.8359 37.3047V37.125H22.4141Z" fill="#0082BD"/>
<path d="M21.8359 37.125V37.3047C21.8359 38.4297 20.9219 39.3438 19.7969 39.3438H15.0547C14.6406 39.3438 14.25 39.2188 13.9297 39C13.7109 38.6797 13.5859 38.2969 13.5859 37.875V37.1172H21.8359V37.125Z" fill="#48BBED"/>
</svg>
