<svg width="233" height="60" viewBox="0 0 233 60" fill="none" xmlns="http://www.w3.org/2000/svg">
<g clip-path="url(#clip0_179_2590)">
<path d="M1.82818 46.6261C1.82818 46.6261 14.1835 48.7236 23.5407 39.1077C18.4237 46.5525 10.6016 55.1565 0 60.0001C0 60.0001 28.2926 51.2535 31.1441 25.5889C31.1441 25.5889 24.3455 40.9868 1.82818 46.6261Z" fill="white"/>
<path d="M32.8258 23.7834C34.319 23.7834 35.5308 22.5852 35.5308 21.1086C35.5308 19.6321 34.319 18.4338 32.8258 18.4338C31.3325 18.4338 30.1207 19.6321 30.1207 21.1086C30.1207 22.5852 31.3325 23.7834 32.8258 23.7834Z" fill="white"/>
<path d="M28.2204 28.2659C28.2204 28.2659 31.8024 21.9756 26.3202 0C26.3202 0 28.2949 16.4098 25.6619 24.5055C25.6619 24.5055 19.0819 27.4701 11.5529 18.5051C11.5529 18.5051 19.0819 30.2875 28.2204 28.2636V28.2659Z" fill="white"/>
<path d="M56.4619 16.8032C59.0506 16.8032 61.1114 17.3897 62.6442 18.5627C64.177 19.7356 64.9422 21.3961 64.9422 23.5466H60.4369C60.3787 22.4909 60.0159 21.6997 59.3553 21.173C58.6924 20.6464 57.6714 20.3819 56.2874 20.3819C55.3198 20.3819 54.5383 20.5912 53.9452 21.0121C53.3521 21.4329 53.0567 22.0125 53.0567 22.7554C53.0567 23.3603 53.2405 23.8018 53.6056 24.0755C53.9708 24.3492 54.4895 24.593 55.1617 24.8092C55.8339 25.0231 57.0108 25.3359 58.6901 25.7476C60.4485 26.1776 61.8022 26.6468 62.7512 27.1551C63.7002 27.6634 64.4212 28.312 64.9166 29.1054C65.4097 29.8966 65.6586 30.8695 65.6586 32.0217C65.6586 33.3511 65.3027 34.5332 64.591 35.5682C63.8792 36.6031 62.8419 37.3897 61.4789 37.9279C60.1159 38.4661 58.5738 38.7328 56.8526 38.7328C54.2243 38.7328 52.0659 38.082 50.3749 36.7825C48.684 35.4831 47.8397 33.6983 47.8397 31.4329V31.2857H52.345C52.345 32.5162 52.7706 33.4707 53.6196 34.1445C54.4686 34.8184 55.5966 35.1565 56.9992 35.1565C58.2435 35.1565 59.2483 34.9357 60.0089 34.4964C60.7695 34.0571 61.1509 33.4063 61.1509 32.5461C61.1509 31.9803 60.9439 31.4996 60.5276 31.1086C60.1136 30.7177 59.56 30.4003 58.8669 30.1565C58.1761 29.9127 57.0085 29.6045 55.3687 29.2319C53.4707 28.7627 52.0868 28.2637 51.2192 27.737C50.3493 27.2103 49.6864 26.5686 49.2329 25.8166C48.7793 25.0645 48.5514 24.1606 48.5514 23.105C48.5514 21.7963 48.9328 20.6533 49.6934 19.6758C50.454 18.6983 51.4472 17.9762 52.6729 17.507C53.8987 17.0378 55.164 16.8032 56.4665 16.8032H56.4619ZM72.5596 17.3023V28.5305L77.8674 23.0774H82.8472L77.0649 28.6477L83.4984 38.2338H78.4L74.1901 31.4628L72.5596 33.0176V38.2361H68.3497V17.3046H72.5596V17.3023ZM89.3109 17.3023V20.7315H85.101V17.3023H89.3109ZM89.3109 23.0774V38.2338H85.101V23.0774H89.3109ZM96.9586 17.3023V38.2338H92.7486V17.3023H96.9586ZM104.609 17.3023V38.2338H100.399V17.3023H104.609ZM115.666 16.8032C118.255 16.8032 120.316 17.3897 121.848 18.5627C123.381 19.7356 124.146 21.3961 124.146 23.5466H119.641C119.583 22.4909 119.22 21.6997 118.559 21.173C117.897 20.6464 116.875 20.3819 115.492 20.3819C114.524 20.3819 113.742 20.5912 113.149 21.0121C112.556 21.4329 112.261 22.0125 112.261 22.7554C112.261 23.3603 112.445 23.8018 112.81 24.0755C113.175 24.3492 113.694 24.593 114.366 24.8092C115.038 25.0231 116.215 25.3359 117.894 25.7476C119.653 26.1776 121.006 26.6468 121.955 27.1551C122.904 27.6634 123.625 28.312 124.118 29.1054C124.611 29.8966 124.86 30.8695 124.86 32.0217C124.86 33.3511 124.505 34.5332 123.793 35.5682C123.081 36.6031 122.044 37.3897 120.681 37.9279C119.318 38.4661 117.776 38.7328 116.057 38.7328C113.428 38.7328 111.27 38.082 109.579 36.7825C107.888 35.4831 107.044 33.6983 107.044 31.4329V31.2857H111.549C111.549 32.5162 111.975 33.4707 112.824 34.1445C113.673 34.8184 114.801 35.1565 116.203 35.1565C117.448 35.1565 118.452 34.9357 119.213 34.4964C119.974 34.0571 120.355 33.4063 120.355 32.5461C120.355 31.9803 120.148 31.4996 119.732 31.1086C119.318 30.7177 118.764 30.4003 118.071 30.1565C117.38 29.9127 116.213 29.6045 114.573 29.2319C112.675 28.7627 111.291 28.2637 110.421 27.737C109.551 27.2103 108.888 26.5686 108.435 25.8166C107.981 25.0645 107.753 24.1606 107.753 23.105C107.753 21.7963 108.135 20.6533 108.895 19.6758C109.656 18.6983 110.649 17.9762 111.875 17.507C113.1 17.0378 114.366 16.8032 115.671 16.8032H115.666ZM131.38 17.3023V25.1887H131.468C131.943 24.4067 132.585 23.7903 133.397 23.3419C134.206 22.8934 135.067 22.668 135.976 22.668C137.932 22.668 139.351 23.1556 140.23 24.133C141.109 25.1105 141.549 26.6537 141.549 28.765V38.2338H137.339V29.616C137.339 28.3856 137.137 27.4656 136.732 26.8607C136.327 26.2558 135.629 25.9523 134.641 25.9523C133.515 25.9523 132.689 26.2903 132.166 26.9642C131.643 27.6381 131.38 28.7466 131.38 30.2922V38.2361H127.17V17.3046H131.38V17.3023ZM149.078 17.3023V20.7315H144.868V17.3023H149.078ZM149.078 23.0774V38.2338H144.868V23.0774H149.078ZM156.993 17.3023V28.5305L162.301 23.0774H167.281L161.501 28.6477L167.934 38.2338H162.836L158.626 31.4628L156.995 33.0176V38.2361H152.785V17.3046H156.995L156.993 17.3023ZM175.7 22.668C177.757 22.668 179.361 23.0774 180.517 23.8984C181.673 24.7195 182.32 25.9201 182.46 27.5047H178.457C178.396 26.7825 178.131 26.2581 177.657 25.9362C177.182 25.6142 176.491 25.4532 175.582 25.4532C174.791 25.4532 174.203 25.5705 173.819 25.8051C173.433 26.0397 173.24 26.3915 173.24 26.8607C173.24 27.2126 173.368 27.5047 173.626 27.7393C173.882 27.9739 174.272 28.1786 174.796 28.3557C175.319 28.5305 175.898 28.6776 176.531 28.7949C178.447 29.1652 179.801 29.547 180.592 29.938C181.383 30.329 181.962 30.7982 182.327 31.3455C182.692 31.8929 182.876 32.5668 182.876 33.3672C182.876 35.0668 182.248 36.3731 180.994 37.2816C179.738 38.1901 178.033 38.6454 175.88 38.6454C173.726 38.6454 171.872 38.1671 170.618 37.208C169.362 36.2512 168.716 34.9495 168.676 33.3097H172.679C172.679 34.0916 172.986 34.7126 173.598 35.1703C174.21 35.6303 174.982 35.8603 175.91 35.8603C176.701 35.8603 177.359 35.6901 177.882 35.3474C178.406 35.0047 178.668 34.5309 178.668 33.926C178.668 33.5351 178.506 33.2131 178.18 32.9578C177.854 32.7048 177.394 32.4794 176.801 32.2839C176.208 32.0884 175.289 31.863 174.044 31.61C173.056 31.4145 172.177 31.15 171.407 30.8189C170.637 30.4877 170.048 30.0507 169.644 29.5148C169.239 28.9766 169.037 28.3189 169.037 27.5369C169.037 26.541 169.279 25.6717 169.762 24.9288C170.246 24.1859 170.988 23.6247 171.986 23.243C172.984 22.8612 174.223 22.6703 175.707 22.6703L175.7 22.668ZM189.547 17.3023V25.1887H189.635C190.11 24.4067 190.752 23.7903 191.563 23.3419C192.373 22.8934 193.233 22.668 194.143 22.668C196.099 22.668 197.518 23.1556 198.397 24.133C199.276 25.1105 199.716 26.6537 199.716 28.765V38.2338H195.506V29.616C195.506 28.3856 195.303 27.4656 194.899 26.8607C194.494 26.2558 193.796 25.9523 192.808 25.9523C191.682 25.9523 190.856 26.2903 190.333 26.9642C189.81 27.6381 189.547 28.7466 189.547 30.2922V38.2361H185.337V17.3046H189.547V17.3023ZM205.644 23.0774L209.112 33.4546H209.171L212.52 23.0774H216.879L210.475 40.1381C210.022 41.3294 209.394 42.1988 208.594 42.7462C207.794 43.2936 206.682 43.5672 205.258 43.5672C204.647 43.5672 203.765 43.519 202.621 43.4201V39.9909C203.372 40.0875 204.114 40.1381 204.844 40.1381C205.437 40.1381 205.898 39.9564 206.224 39.5953C206.549 39.2342 206.712 38.7788 206.712 38.2315C206.712 37.9187 206.654 37.6059 206.535 37.2931L201.139 23.0751H205.644V23.0774ZM225.359 22.668C229.825 22.6864 232.06 24.1238 232.06 26.978V35.0093C232.06 36.495 232.237 37.5691 232.593 38.2338H228.322C228.164 37.7646 228.066 37.277 228.027 36.7687C226.782 38.0199 225.061 38.6454 222.868 38.6454C221.268 38.6454 219.998 38.2453 219.058 37.4426C218.118 36.6422 217.651 35.5268 217.651 34.1008C217.651 32.6749 218.095 31.6376 218.986 30.8764C219.895 30.076 221.544 29.5677 223.938 29.3515C225.638 29.1767 226.715 28.9559 227.169 28.6914C227.622 28.427 227.85 28.0222 227.85 27.4748C227.85 26.7917 227.643 26.2834 227.227 25.95C226.813 25.6188 226.12 25.4509 225.152 25.4509C224.263 25.4509 223.591 25.6326 223.135 25.9937C222.682 26.3547 222.414 26.9366 222.335 27.737H218.125C218.223 26.0765 218.916 24.8161 220.2 23.9559C221.484 23.0958 223.205 22.6657 225.359 22.6657V22.668ZM221.861 33.9237C221.861 35.214 222.721 35.858 224.44 35.858C226.694 35.8396 227.829 34.6942 227.85 32.4288V30.8166C227.513 31.1477 226.664 31.3938 225.301 31.5502C224.115 31.6859 223.245 31.9274 222.691 32.2678C222.138 32.6105 221.861 33.1625 221.861 33.9237Z" fill="white"/>
<path d="M53.3893 49.6067L51.8844 58.2889H56.2874L56.4618 57.2976H53.1125L54.4429 49.609H53.3893V49.6067ZM59.7158 58.4108C60.3345 58.4108 60.8788 58.2751 61.3463 58.0014C61.8138 57.7277 62.1999 57.3804 62.4999 56.9595L61.7091 56.4513C61.4998 56.748 61.2323 56.9963 60.9067 57.1964C60.588 57.3873 60.2345 57.4816 59.8414 57.4816C59.4902 57.4816 59.2018 57.4103 58.9761 57.27C58.7505 57.1205 58.5831 56.9135 58.4737 56.6491C58.3644 56.3846 58.3109 56.0833 58.3109 55.7429C58.3109 55.4025 58.3621 55.115 58.4621 54.8252C58.5714 54.5285 58.7203 54.2664 58.9133 54.0433C59.1064 53.8202 59.332 53.6454 59.5902 53.5235C59.8577 53.3901 60.1507 53.3257 60.4671 53.3257C60.7834 53.3257 61.0323 53.3832 61.2323 53.4982C61.4323 53.6132 61.5835 53.7788 61.6835 53.995C61.7928 54.202 61.8463 54.4549 61.8463 54.7516C61.8463 54.8666 61.8301 54.9839 61.7952 55.0989C61.7626 55.207 61.7231 55.3105 61.6812 55.4094L62.0696 54.839H57.9318V55.6831H62.7348C62.7674 55.6164 62.7976 55.5106 62.8232 55.3611C62.8558 55.2116 62.8744 55.0759 62.8744 54.9517C62.8744 54.4066 62.779 53.9513 62.586 53.5879C62.3929 53.2153 62.1208 52.9347 61.7719 52.7438C61.43 52.5529 61.016 52.4586 60.5299 52.4586C60.0437 52.4586 59.6437 52.5483 59.2506 52.7323C58.8668 52.914 58.5272 53.1624 58.2342 53.4775C57.9504 53.7834 57.7248 54.1399 57.5573 54.5446C57.3992 54.9425 57.3201 55.3634 57.3201 55.8096C57.3201 56.3547 57.4201 56.8216 57.6201 57.2102C57.8202 57.5989 58.1016 57.8956 58.4598 58.1026C58.818 58.3096 59.2367 58.4131 59.7135 58.4131L59.7158 58.4108ZM68.8102 52.5828L67.8449 58.2866H68.7613L69.7638 52.5828H68.8102ZM63.5675 55.4347C63.4931 55.9729 63.5373 56.4674 63.7048 56.9227C63.8722 57.3689 64.1397 57.7277 64.5072 58.0014C64.884 58.2659 65.3422 58.3993 65.8865 58.3993C66.2702 58.3993 66.6215 58.3257 66.9401 58.1762C67.2657 58.0198 67.5495 57.8036 67.7937 57.5322C68.0356 57.2585 68.2357 56.9457 68.3961 56.5893C68.5543 56.2259 68.6636 55.8418 68.7218 55.437C68.7729 55.0483 68.7729 54.6803 68.7218 54.3331C68.6799 53.9766 68.5845 53.6592 68.4334 53.3786C68.2822 53.098 68.0728 52.8749 67.8054 52.7093C67.5472 52.5437 67.2239 52.4609 66.8401 52.4609C66.2958 52.4517 65.7911 52.5805 65.3236 52.845C64.8631 53.1095 64.4746 53.4683 64.1583 53.9237C63.849 54.3698 63.6513 54.8735 63.5698 55.437L63.5675 55.4347ZM64.57 55.4347C64.6374 55.046 64.7793 54.6941 64.9956 54.3813C65.2213 54.0663 65.498 53.8225 65.8237 53.65C66.1493 53.4683 66.4959 53.3809 66.8657 53.3901C67.1169 53.3993 67.3332 53.4614 67.5169 53.5764C67.71 53.6845 67.8682 53.8317 67.9938 54.0226C68.1194 54.2135 68.2077 54.4273 68.2566 54.6665C68.3078 54.9057 68.3101 55.1633 68.2682 55.4347C68.2171 55.7153 68.1217 55.9798 67.9798 56.2282C67.8449 56.4766 67.6798 56.6951 67.4774 56.8859C67.2774 57.0676 67.0541 57.2125 66.8122 57.3206C66.5773 57.4195 66.3354 57.4701 66.0842 57.4701C65.7167 57.4701 65.4073 57.3804 65.1561 57.1964C64.9142 57.0055 64.7421 56.7595 64.6421 56.4513C64.5421 56.1362 64.5165 55.7981 64.5677 55.4347H64.57ZM72.4805 52.5828H71.4896L70.4872 58.2866H71.4896L72.4805 52.5828ZM73.9993 53.6615L74.6645 52.868C74.5133 52.7277 74.3552 52.6242 74.1877 52.5575C74.0295 52.4908 73.8481 52.4586 73.6481 52.4586C73.3132 52.4586 73.0038 52.5736 72.72 52.8059C72.4433 53.0382 72.2107 53.3303 72.0176 53.6868C71.8339 54.0433 71.7036 54.4135 71.6292 54.8022H72.0944C72.1455 54.563 72.2107 54.3353 72.2944 54.1192C72.3851 53.9053 72.5107 53.7259 72.6712 53.5856C72.8387 53.4453 73.048 53.3786 73.2992 53.3878C73.4411 53.3878 73.5667 53.4131 73.676 53.4614C73.7853 53.512 73.8923 53.5764 74.0016 53.6592L73.9993 53.6615ZM78.8768 54.816L78.2744 58.2889H79.2536L79.8816 54.6918C79.9397 54.294 79.9188 53.926 79.8188 53.5879C79.7281 53.2498 79.5559 52.9761 79.3047 52.7691C79.0628 52.5621 78.7279 52.4586 78.3023 52.4586C77.9185 52.4586 77.5789 52.546 77.2858 52.7185C76.9928 52.8841 76.7392 53.1233 76.5206 53.4384L76.6578 52.5828H75.667L74.6645 58.2866H75.667L76.295 54.7654C76.3369 54.5009 76.4322 54.2664 76.5834 54.0594C76.7416 53.8524 76.9393 53.6914 77.1719 53.5764C77.4138 53.4522 77.6789 53.3901 77.9627 53.3901C78.2464 53.3901 78.4488 53.4568 78.5907 53.5879C78.7326 53.7213 78.8256 53.8938 78.8675 54.1077C78.9093 54.3215 78.914 54.5584 78.8791 54.8137L78.8768 54.816ZM85.4684 56.564L84.6544 57.0239C84.7637 57.247 84.9219 57.4655 85.1312 57.6817C85.3405 57.8956 85.5964 58.075 85.8964 58.2153C86.2058 58.3487 86.5523 58.4131 86.9384 58.4131C87.3245 58.4131 87.6781 58.3349 87.9804 58.1785C88.2805 58.0129 88.5154 57.7944 88.6829 57.5207C88.8573 57.247 88.9457 56.9457 88.9457 56.6146C88.9457 56.2834 88.8713 56.0028 88.7201 55.7958C88.5782 55.5819 88.3852 55.4025 88.1433 55.2622C87.9014 55.1219 87.6385 54.9885 87.3524 54.8643C87.1687 54.7815 86.9966 54.6987 86.8384 54.6159C86.6872 54.5331 86.5663 54.4388 86.4756 54.3307C86.3849 54.2158 86.3383 54.0824 86.3383 53.9329C86.3383 53.742 86.4128 53.5902 86.564 53.4729C86.7221 53.3579 86.9314 53.3004 87.192 53.3004C87.4525 53.3004 87.7013 53.374 87.92 53.5235C88.1456 53.6638 88.3386 53.8409 88.4968 54.0571L89.2364 53.5603C89.062 53.2452 88.8015 52.9853 88.4596 52.7783C88.1177 52.5644 87.7153 52.4563 87.2548 52.4563C86.9454 52.4563 86.6454 52.5138 86.3523 52.6288C86.0685 52.7438 85.8336 52.9232 85.6499 53.1624C85.4661 53.3947 85.3731 53.6914 85.3731 54.0548C85.3731 54.3698 85.4475 54.6297 85.5987 54.8367C85.7499 55.0345 85.9383 55.2001 86.1639 55.3335C86.3895 55.4577 86.6105 55.5612 86.8291 55.644C87.0036 55.7176 87.1803 55.805 87.3548 55.9039C87.5292 55.9936 87.6757 56.1063 87.7944 56.2397C87.9107 56.3731 87.9688 56.5341 87.9688 56.7227C87.9688 56.9457 87.8804 57.1366 87.706 57.293C87.5315 57.4425 87.3013 57.5161 87.0152 57.5161C86.7803 57.5161 86.5686 57.4747 86.3755 57.3919C86.1825 57.3022 86.0127 57.1849 85.8615 57.0446C85.7196 56.8951 85.5894 56.7342 85.4731 56.5617L85.4684 56.564ZM91.3344 48.6155L89.6784 58.2889H90.6576L92.3509 48.6155H91.3344ZM93.679 52.5828L90.8692 54.9011L92.9765 58.2866H94.1674L92.0485 55.0115L94.9582 52.5805H93.679V52.5828ZM96.4724 50.2277C96.4724 50.4094 96.5399 50.5658 96.6724 50.6992C96.8073 50.8326 96.9655 50.897 97.1492 50.897C97.333 50.897 97.5051 50.8303 97.6377 50.6992C97.7726 50.5658 97.8377 50.4094 97.8377 50.2277C97.8377 50.046 97.7703 49.8758 97.6377 49.7447C97.5051 49.6113 97.34 49.5469 97.1492 49.5469C96.9585 49.5469 96.8073 49.6136 96.6724 49.7447C96.5399 49.8781 96.4724 50.0391 96.4724 50.2277ZM96.2352 52.5828L95.2815 58.2866H96.2724L97.2516 52.5828H96.2352ZM99.9101 48.6155L98.2541 58.2889H99.2193L100.913 48.6155H99.9101ZM102.701 48.6155L101.045 58.2889H102.01L103.704 48.6155H102.701ZM104.467 56.564L103.653 57.0239C103.762 57.247 103.92 57.4655 104.129 57.6817C104.339 57.8956 104.595 58.075 104.895 58.2153C105.204 58.3487 105.55 58.4131 105.937 58.4131C106.323 58.4131 106.676 58.3349 106.979 58.1785C107.279 58.0129 107.514 57.7944 107.681 57.5207C107.855 57.247 107.944 56.9457 107.944 56.6146C107.944 56.2834 107.869 56.0028 107.718 55.7958C107.576 55.5819 107.383 55.4025 107.141 55.2622C106.9 55.1219 106.637 54.9885 106.351 54.8643C106.167 54.7815 105.995 54.6987 105.837 54.6159C105.685 54.5331 105.564 54.4388 105.474 54.3307C105.383 54.2158 105.337 54.0824 105.337 53.9329C105.337 53.742 105.411 53.5902 105.562 53.4729C105.72 53.3579 105.93 53.3004 106.19 53.3004C106.451 53.3004 106.699 53.374 106.918 53.5235C107.144 53.6638 107.337 53.8409 107.495 54.0571L108.235 53.5603C108.06 53.2452 107.8 52.9853 107.458 52.7783C107.116 52.5644 106.713 52.4563 106.253 52.4563C105.944 52.4563 105.644 52.5138 105.35 52.6288C105.067 52.7438 104.832 52.9232 104.648 53.1624C104.464 53.3947 104.371 53.6914 104.371 54.0548C104.371 54.3698 104.446 54.6297 104.597 54.8367C104.748 55.0345 104.936 55.2001 105.162 55.3335C105.388 55.4577 105.609 55.5612 105.827 55.644C106.002 55.7176 106.178 55.805 106.353 55.9039C106.527 55.9936 106.674 56.1063 106.793 56.2397C106.909 56.3731 106.967 56.5341 106.967 56.7227C106.967 56.9457 106.879 57.1366 106.704 57.293C106.53 57.4425 106.299 57.5161 106.013 57.5161C105.778 57.5161 105.567 57.4747 105.374 57.3919C105.181 57.3022 105.011 57.1849 104.86 57.0446C104.718 56.8951 104.588 56.7342 104.471 56.5617L104.467 56.564ZM112.661 52.5828L112.486 53.512H115.308L115.471 52.5828H112.661ZM113.877 50.598L112.572 58.2866H113.538L114.891 50.598H113.875H113.877ZM118.097 48.6155H117.106L115.424 58.2889H116.415L118.097 48.6155ZM119.627 54.816L119.025 58.2889H120.004L120.632 54.6918C120.683 54.271 120.662 53.8938 120.569 53.5626C120.478 53.2245 120.306 52.9554 120.055 52.7576C119.804 52.5598 119.469 52.4609 119.052 52.4609C118.636 52.4609 118.259 52.5736 117.924 52.7967C117.599 53.0106 117.331 53.2958 117.122 53.6523C116.913 54.0088 116.766 54.3928 116.682 54.8045H117.022C117.089 54.5492 117.196 54.3124 117.348 54.0985C117.506 53.8846 117.699 53.7098 117.924 53.5787C118.159 53.4453 118.422 53.3832 118.715 53.3924C118.992 53.4016 119.201 53.4706 119.343 53.604C119.485 53.7282 119.578 53.8984 119.62 54.1123C119.662 54.3193 119.667 54.5538 119.632 54.8183L119.627 54.816ZM127.049 52.5828L126.084 58.2866H127L128.003 52.5828H127.049ZM121.806 55.4347C121.732 55.9729 121.776 56.4674 121.944 56.9227C122.111 57.3689 122.379 57.7277 122.746 58.0014C123.123 58.2659 123.581 58.3993 124.125 58.3993C124.509 58.3993 124.86 58.3257 125.179 58.1762C125.505 58.0198 125.788 57.8036 126.033 57.5322C126.274 57.2585 126.475 56.9457 126.635 56.5893C126.793 56.2259 126.902 55.8418 126.961 55.437C127.012 55.0483 127.012 54.6803 126.961 54.3331C126.919 53.9766 126.823 53.6592 126.672 53.3786C126.521 53.098 126.312 52.8749 126.044 52.7093C125.786 52.5437 125.463 52.4609 125.079 52.4609C124.535 52.4517 124.03 52.5805 123.562 52.845C123.102 53.1095 122.713 53.4683 122.397 53.9237C122.088 54.3698 121.89 54.8735 121.809 55.437L121.806 55.4347ZM122.809 55.4347C122.876 55.046 123.018 54.6941 123.235 54.3813C123.46 54.0663 123.737 53.8225 124.063 53.65C124.388 53.4683 124.735 53.3809 125.105 53.3901C125.356 53.3993 125.572 53.4614 125.756 53.5764C125.949 53.6845 126.107 53.8317 126.233 54.0226C126.358 54.2135 126.447 54.4273 126.495 54.6665C126.547 54.9057 126.549 55.1633 126.507 55.4347C126.456 55.7153 126.361 55.9798 126.219 56.2282C126.084 56.4766 125.919 56.6951 125.716 56.8859C125.516 57.0676 125.293 57.2125 125.051 57.3206C124.816 57.4195 124.574 57.4701 124.323 57.4701C123.956 57.4701 123.646 57.3804 123.395 57.1964C123.153 57.0055 122.981 56.7595 122.881 56.4513C122.781 56.1362 122.755 55.7981 122.807 55.4347H122.809ZM128.9 52.5828L128.726 53.512H131.547L131.71 52.5828H128.9ZM130.117 50.598L128.812 58.2866H129.777L131.131 50.598H130.115H130.117ZM143.74 54.6918C143.791 54.294 143.777 53.926 143.703 53.5879C143.635 53.2498 143.486 52.9761 143.251 52.7691C143.026 52.5621 142.705 52.4586 142.286 52.4586C141.867 52.4586 141.514 52.5575 141.195 52.7553C140.877 52.9531 140.607 53.2222 140.381 53.5603C140.33 53.3372 140.244 53.1417 140.118 52.9784C140.002 52.8128 139.842 52.684 139.642 52.5943C139.449 52.5046 139.216 52.4586 138.939 52.4586C138.704 52.4586 138.488 52.4954 138.288 52.5713C138.088 52.6449 137.904 52.753 137.737 52.8933C137.578 53.0267 137.432 53.1877 137.297 53.3763L137.423 52.5828H136.432L135.429 58.2866H136.432L137.06 54.7516C137.102 54.4871 137.19 54.2549 137.323 54.0571C137.465 53.8501 137.644 53.6891 137.862 53.5741C138.088 53.4591 138.339 53.4016 138.616 53.4016C138.893 53.4016 139.076 53.4683 139.193 53.5994C139.318 53.7236 139.393 53.8938 139.418 54.1077C139.444 54.3215 139.439 54.5584 139.407 54.8137L138.804 58.2866H139.77L140.384 54.7884C140.425 54.5239 140.514 54.2894 140.646 54.0824C140.788 53.8754 140.967 53.7098 141.186 53.5856C141.412 53.4614 141.667 53.3993 141.951 53.3993C142.219 53.3993 142.412 53.466 142.528 53.5971C142.654 53.7213 142.728 53.8915 142.754 54.1054C142.786 54.3193 142.786 54.5561 142.754 54.8114L142.126 58.2843H143.128L143.742 54.6872L143.74 54.6918ZM150.173 52.5828L149.208 58.2866H150.125L151.127 52.5828H150.173ZM144.931 55.4347C144.856 55.9729 144.901 56.4674 145.068 56.9227C145.235 57.3689 145.503 57.7277 145.87 58.0014C146.247 58.2659 146.705 58.3993 147.25 58.3993C147.633 58.3993 147.985 58.3257 148.303 58.1762C148.629 58.0198 148.913 57.8036 149.157 57.5322C149.399 57.2585 149.599 56.9457 149.759 56.5893C149.918 56.2259 150.027 55.8418 150.085 55.437C150.136 55.0483 150.136 54.6803 150.085 54.3331C150.043 53.9766 149.948 53.6592 149.797 53.3786C149.645 53.098 149.436 52.8749 149.169 52.7093C148.91 52.5437 148.587 52.4609 148.203 52.4609C147.659 52.4517 147.154 52.5805 146.687 52.845C146.226 53.1095 145.838 53.4683 145.522 53.9237C145.212 54.3698 145.014 54.8735 144.933 55.437L144.931 55.4347ZM145.933 55.4347C146.001 55.046 146.143 54.6941 146.359 54.3813C146.584 54.0663 146.861 53.8225 147.187 53.65C147.513 53.4683 147.859 53.3809 148.229 53.3901C148.48 53.3993 148.696 53.4614 148.88 53.5764C149.073 53.6845 149.231 53.8317 149.357 54.0226C149.483 54.2135 149.571 54.4273 149.62 54.6665C149.671 54.9057 149.673 55.1633 149.631 55.4347C149.58 55.7153 149.485 55.9798 149.343 56.2282C149.208 56.4766 149.043 56.6951 148.841 56.8859C148.641 57.0676 148.417 57.2125 148.175 57.3206C147.94 57.4195 147.699 57.4701 147.447 57.4701C147.08 57.4701 146.771 57.3804 146.519 57.1964C146.277 57.0055 146.105 56.7595 146.005 56.4513C145.905 56.1362 145.88 55.7981 145.931 55.4347H145.933ZM152.025 52.5828L151.85 53.512H154.672L154.835 52.5828H152.025ZM153.241 50.598L151.936 58.2866H152.902L154.255 50.598H153.239H153.241ZM154.953 52.5828L154.779 53.512H157.6L157.763 52.5828H154.953ZM156.17 50.598L154.865 58.2866H155.83L157.184 50.598H156.167H156.17ZM160.138 58.4108C160.756 58.4108 161.301 58.2751 161.768 58.0014C162.236 57.7277 162.622 57.3804 162.922 56.9595L162.131 56.4513C161.922 56.748 161.654 56.9963 161.329 57.1964C161.01 57.3873 160.656 57.4816 160.263 57.4816C159.912 57.4816 159.624 57.4103 159.398 57.27C159.172 57.1205 159.005 56.9135 158.896 56.6491C158.786 56.3846 158.733 56.0833 158.733 55.7429C158.733 55.4025 158.784 55.115 158.884 54.8252C158.993 54.5285 159.142 54.2664 159.335 54.0433C159.528 53.8202 159.754 53.6454 160.012 53.5235C160.28 53.3901 160.573 53.3257 160.889 53.3257C161.205 53.3257 161.454 53.3832 161.654 53.4982C161.854 53.6132 162.005 53.7788 162.105 53.995C162.215 54.202 162.268 54.4549 162.268 54.7516C162.268 54.8666 162.252 54.9839 162.217 55.0989C162.184 55.207 162.145 55.3105 162.103 55.4094L162.491 54.839H158.354V55.6831H163.157C163.189 55.6164 163.219 55.5106 163.245 55.3611C163.278 55.2116 163.296 55.0759 163.296 54.9517C163.296 54.4066 163.201 53.9513 163.008 53.5879C162.815 53.2153 162.543 52.9347 162.194 52.7438C161.852 52.5529 161.438 52.4586 160.952 52.4586C160.491 52.4586 160.066 52.5483 159.672 52.7323C159.289 52.914 158.949 53.1624 158.656 53.4775C158.372 53.7834 158.147 54.1399 157.979 54.5446C157.821 54.9425 157.742 55.3634 157.742 55.8096C157.742 56.3547 157.842 56.8216 158.042 57.2102C158.242 57.5989 158.523 57.8956 158.882 58.1026C159.242 58.3096 159.659 58.4131 160.135 58.4131L160.138 58.4108ZM165.969 52.5828H164.978L163.975 58.2866H164.978L165.969 52.5828ZM167.488 53.6615L168.153 52.868C168.002 52.7277 167.843 52.6242 167.676 52.5575C167.518 52.4908 167.336 52.4586 167.136 52.4586C166.801 52.4586 166.492 52.5736 166.208 52.8059C165.932 53.0382 165.699 53.3303 165.506 53.6868C165.322 54.0433 165.192 54.4135 165.117 54.8022H165.583C165.634 54.563 165.699 54.3353 165.783 54.1192C165.876 53.9053 165.999 53.7259 166.159 53.5856C166.327 53.4453 166.536 53.3786 166.787 53.3878C166.929 53.3878 167.055 53.4131 167.164 53.4614C167.274 53.5097 167.381 53.5764 167.49 53.6592L167.488 53.6615Z" fill="white"/>
</g>
<defs>
<clipPath id="clip0_179_2590">
<rect width="232.593" height="60" fill="white"/>
</clipPath>
</defs>
</svg>
