<svg width="211" height="56" viewBox="0 0 211 56" fill="none" xmlns="http://www.w3.org/2000/svg">
<g clip-path="url(#clip0_5_2262)">
<path d="M1.65708 43.2405C1.65708 43.2405 12.8561 45.1632 21.3376 36.3486C16.6994 43.173 9.6094 51.0599 0 55.4999C0 55.4999 25.6447 47.4823 28.2295 23.9563C28.2295 23.9563 22.067 38.071 1.65708 43.2405Z" fill="#1DA077"/>
<path d="M29.7537 22.3015C31.1072 22.3015 32.2056 21.2031 32.2056 19.8496C32.2056 18.4961 31.1072 17.3977 29.7537 17.3977C28.4002 17.3977 27.3018 18.4961 27.3018 19.8496C27.3018 21.2031 28.4002 22.3015 29.7537 22.3015Z" fill="#1DA077"/>
<path d="M25.5794 26.4104C25.5794 26.4104 28.8261 20.6443 23.857 0.5C23.857 0.5 25.6469 15.5424 23.2603 22.9634C23.2603 22.9634 17.2961 25.6809 10.4717 17.463C10.4717 17.463 17.2961 28.2635 25.5794 26.4083V26.4104Z" fill="#1DA077"/>
<path d="M51.1777 15.9028C53.5242 15.9028 55.3921 16.4404 56.7814 17.5156C58.1708 18.5908 58.8644 20.113 58.8644 22.0842H54.7807C54.728 21.1165 54.3991 20.3913 53.8004 19.9085C53.1995 19.4257 52.274 19.1833 51.0196 19.1833C50.1426 19.1833 49.4342 19.3751 48.8966 19.7609C48.359 20.1467 48.0912 20.678 48.0912 21.359C48.0912 21.9135 48.2578 22.3182 48.5888 22.5691C48.9198 22.82 49.3899 23.0435 49.9992 23.2416C50.6085 23.4377 51.6753 23.7244 53.1974 24.1018C54.7912 24.4961 56.0182 24.9261 56.8784 25.3921C57.7386 25.858 58.3921 26.4525 58.8412 27.1799C59.2881 27.9051 59.5137 28.7969 59.5137 29.8531C59.5137 31.0717 59.1912 32.1553 58.546 33.104C57.9009 34.0527 56.9606 34.7738 55.7252 35.2671C54.4898 35.7604 53.092 36.005 51.5319 36.005C49.1496 36.005 47.1931 35.4083 45.6604 34.2172C44.1277 33.026 43.3624 31.39 43.3624 29.3134V29.1785H47.4461C47.4461 30.3064 47.8319 31.1813 48.6014 31.799C49.3709 32.4167 50.3934 32.7267 51.6647 32.7267C52.7926 32.7267 53.7034 32.5243 54.3928 32.1216C55.0822 31.7189 55.4279 31.1223 55.4279 30.3338C55.4279 29.8152 55.2403 29.3745 54.8629 29.0161C54.4877 28.6577 53.9859 28.3668 53.3576 28.1433C52.7315 27.9199 51.6731 27.6373 50.1868 27.2958C48.4665 26.8657 47.2121 26.4082 46.4257 25.9254C45.6372 25.4427 45.0364 24.8545 44.6253 24.1651C44.2142 23.4757 44.0076 22.6471 44.0076 21.6794C44.0076 20.4798 44.3533 19.432 45.0427 18.536C45.7321 17.64 46.6323 16.978 47.7434 16.548C48.8544 16.1179 50.0013 15.9028 51.1819 15.9028H51.1777ZM65.7689 16.3603V26.6528L70.5799 21.6541H75.0937L69.8526 26.7603L75.684 35.5475H71.0627L67.2468 29.3408L65.7689 30.766V35.5496H61.953V16.3624H65.7689V16.3603ZM80.9525 16.3603V19.5037H77.1366V16.3603H80.9525ZM80.9525 21.6541V35.5475H77.1366V21.6541H80.9525ZM87.8844 16.3603V35.5475H84.0685V16.3603H87.8844ZM94.8185 16.3603V35.5475H91.0025V16.3603H94.8185ZM104.841 15.9028C107.188 15.9028 109.055 16.4404 110.445 17.5156C111.834 18.5908 112.528 20.113 112.528 22.0842H108.444C108.391 21.1165 108.062 20.3913 107.464 19.9085C106.863 19.4257 105.937 19.1833 104.683 19.1833C103.806 19.1833 103.098 19.3751 102.56 19.7609C102.022 20.1467 101.755 20.678 101.755 21.359C101.755 21.9135 101.921 22.3182 102.252 22.5691C102.583 22.82 103.053 23.0435 103.663 23.2416C104.272 23.4377 105.339 23.7244 106.861 24.1018C108.455 24.4961 109.682 24.9261 110.542 25.3921C111.402 25.858 112.056 26.4525 112.502 27.1799C112.949 27.9051 113.175 28.7969 113.175 29.8531C113.175 31.0717 112.852 32.1553 112.207 33.104C111.562 34.0527 110.622 34.7738 109.386 35.2671C108.151 35.7604 106.753 36.005 105.195 36.005C102.813 36.005 100.856 35.4083 99.3238 34.2172C97.7911 33.026 97.0258 31.39 97.0258 29.3134V29.1785H101.109C101.109 30.3064 101.495 31.1813 102.265 31.799C103.034 32.4167 104.057 32.7267 105.328 32.7267C106.456 32.7267 107.367 32.5243 108.056 32.1216C108.746 31.7189 109.091 31.1223 109.091 30.3338C109.091 29.8152 108.904 29.3745 108.526 29.0161C108.151 28.6577 107.649 28.3668 107.021 28.1433C106.395 27.9199 105.337 27.6373 103.85 27.2958C102.13 26.8657 100.875 26.4082 100.087 25.9254C99.2985 25.4427 98.6976 24.8545 98.2865 24.1651C97.8754 23.4757 97.6688 22.6471 97.6688 21.6794C97.6688 20.4798 98.0146 19.432 98.704 18.536C99.3934 17.64 100.294 16.978 101.405 16.548C102.516 16.1179 103.663 15.9028 104.845 15.9028H104.841ZM119.084 16.3603V23.5895H119.165C119.595 22.8727 120.176 22.3077 120.912 21.8966C121.646 21.4855 122.426 21.2789 123.25 21.2789C125.023 21.2789 126.309 21.7258 127.106 22.6218C127.903 23.5178 128.302 24.9325 128.302 26.8678V35.5475H124.486V27.6479C124.486 26.52 124.302 25.6767 123.935 25.1222C123.569 24.5677 122.936 24.2894 122.04 24.2894C121.02 24.2894 120.271 24.5994 119.797 25.2171C119.323 25.8348 119.084 26.851 119.084 28.2677V35.5496H115.268V16.3624H119.084V16.3603ZM135.126 16.3603V19.5037H131.31V16.3603H135.126ZM135.126 21.6541V35.5475H131.31V21.6541H135.126ZM142.3 16.3603V26.6528L147.111 21.6541H151.625L146.386 26.7603L152.218 35.5475H147.596L143.78 29.3408L142.303 30.766V35.5496H138.487V16.3624H142.303L142.3 16.3603ZM159.257 21.2789C161.121 21.2789 162.575 21.6541 163.623 22.4068C164.671 23.1594 165.257 24.2599 165.384 25.7125H161.755C161.701 25.0505 161.46 24.5698 161.03 24.2747C160.6 23.9795 159.974 23.832 159.15 23.832C158.433 23.832 157.899 23.9395 157.552 24.1545C157.202 24.3696 157.027 24.6921 157.027 25.1222C157.027 25.4448 157.143 25.7125 157.377 25.9276C157.608 26.1426 157.963 26.3302 158.437 26.4926C158.911 26.6528 159.436 26.7877 160.01 26.8952C161.747 27.2347 162.974 27.5846 163.691 27.943C164.408 28.3014 164.932 28.7315 165.263 29.2333C165.594 29.7351 165.761 30.3528 165.761 31.0864C165.761 32.6444 165.192 33.8419 164.055 34.6747C162.917 35.5074 161.372 35.9249 159.419 35.9249C157.467 35.9249 155.787 35.4864 154.651 34.6072C153.512 33.7302 152.926 32.5369 152.89 31.0337H156.518C156.518 31.7505 156.797 32.3198 157.351 32.7393C157.906 33.161 158.606 33.3718 159.447 33.3718C160.164 33.3718 160.76 33.2158 161.235 32.9016C161.709 32.5875 161.947 32.1532 161.947 31.5987C161.947 31.2403 161.8 30.9452 161.504 30.7112C161.209 30.4793 160.792 30.2727 160.254 30.0935C159.717 29.9143 158.884 29.7076 157.756 29.4757C156.86 29.2965 156.063 29.0541 155.365 28.7505C154.667 28.4469 154.134 28.0463 153.767 27.5551C153.4 27.0618 153.217 26.4588 153.217 25.742C153.217 24.8292 153.436 24.0322 153.875 23.3513C154.313 22.6703 154.986 22.1559 155.89 21.8059C156.795 21.456 157.918 21.281 159.263 21.281L159.257 21.2789ZM171.807 16.3603V23.5895H171.888C172.318 22.8727 172.9 22.3077 173.635 21.8966C174.369 21.4855 175.149 21.2789 175.973 21.2789C177.746 21.2789 179.032 21.7258 179.829 22.6218C180.626 23.5178 181.025 24.9325 181.025 26.8678V35.5475H177.209V27.6479C177.209 26.52 177.025 25.6767 176.659 25.1222C176.292 24.5677 175.659 24.2894 174.763 24.2894C173.743 24.2894 172.994 24.5994 172.52 25.2171C172.046 25.8348 171.807 26.851 171.807 28.2677V35.5496H167.992V16.3624H171.807V16.3603ZM186.399 21.6541L189.542 31.1666H189.595L192.631 21.6541H196.582L190.778 37.2931C190.366 38.3852 189.797 39.1821 189.072 39.6839C188.347 40.1856 187.339 40.4365 186.049 40.4365C185.494 40.4365 184.695 40.3923 183.658 40.3016V37.1582C184.339 37.2467 185.011 37.2931 185.673 37.2931C186.211 37.2931 186.628 37.1266 186.924 36.7956C187.219 36.4646 187.366 36.0471 187.366 35.5454C187.366 35.2587 187.314 34.9719 187.206 34.6852L182.315 21.652H186.399V21.6541ZM204.268 21.2789C208.316 21.2957 210.342 22.6134 210.342 25.2297V32.5917C210.342 33.9537 210.502 34.9382 210.825 35.5475H206.954C206.811 35.1174 206.722 34.6705 206.686 34.2045C205.558 35.3514 203.998 35.9249 202.01 35.9249C200.56 35.9249 199.409 35.558 198.557 34.8223C197.705 34.0886 197.281 33.0661 197.281 31.759C197.281 30.4519 197.684 29.501 198.492 28.8032C199.316 28.0695 200.811 27.6036 202.98 27.4054C204.521 27.2452 205.497 27.0428 205.908 26.8004C206.32 26.5579 206.526 26.1869 206.526 25.6851C206.526 25.059 206.339 24.593 205.961 24.2873C205.586 23.9838 204.958 23.8298 204.081 23.8298C203.275 23.8298 202.666 23.9964 202.253 24.3274C201.842 24.6584 201.599 25.1918 201.527 25.9254H197.712C197.8 24.4033 198.428 23.248 199.592 22.4595C200.756 21.671 202.316 21.2768 204.268 21.2768V21.2789ZM201.097 31.5966C201.097 32.7794 201.877 33.3697 203.435 33.3697C205.478 33.3528 206.507 32.3029 206.526 30.2263V28.7484C206.22 29.052 205.451 29.2776 204.215 29.4209C203.14 29.5453 202.352 29.7667 201.85 30.0787C201.348 30.3928 201.097 30.8988 201.097 31.5966Z" fill="#1DA077"/>
<path d="M48.3927 45.9729L47.0287 53.9315H51.0196L51.1777 53.0228H48.1418L49.3478 45.975H48.3927V45.9729ZM54.1272 54.0432C54.688 54.0432 55.1813 53.9189 55.605 53.668C56.0288 53.4171 56.3788 53.0987 56.6507 52.7129L55.9339 52.247C55.7442 52.519 55.5017 52.7467 55.2066 52.9301C54.9177 53.1051 54.5973 53.1915 54.241 53.1915C53.9227 53.1915 53.6612 53.1262 53.4567 52.9975C53.2522 52.8605 53.1004 52.6708 53.0014 52.4283C52.9023 52.1859 52.8538 51.9097 52.8538 51.5977C52.8538 51.2856 52.9002 51.0221 52.9908 50.7565C53.0899 50.4845 53.2248 50.2442 53.3998 50.0397C53.5748 49.8352 53.7793 49.6749 54.0133 49.5632C54.2558 49.4409 54.5214 49.3819 54.8081 49.3819C55.0948 49.3819 55.3204 49.4346 55.5017 49.54C55.683 49.6454 55.8201 49.7972 55.9107 49.9954C56.0098 50.1851 56.0583 50.4171 56.0583 50.689C56.0583 50.7944 56.0436 50.902 56.0119 51.0074C55.9824 51.1065 55.9466 51.2013 55.9086 51.292L56.2607 50.7691H52.5101V51.5429H56.8637C56.8932 51.4817 56.9206 51.3847 56.9438 51.2477C56.9733 51.1107 56.9902 50.9863 56.9902 50.8724C56.9902 50.3728 56.9037 49.9553 56.7287 49.6222C56.5538 49.2807 56.3071 49.0235 55.9908 48.8485C55.6809 48.6735 55.3057 48.5871 54.865 48.5871C54.4244 48.5871 54.0618 48.6693 53.7055 48.838C53.3576 49.0045 53.0498 49.2322 52.7842 49.521C52.527 49.8014 52.3225 50.1282 52.1707 50.4993C52.0273 50.864 51.9557 51.2498 51.9557 51.6588C51.9557 52.1585 52.0463 52.5864 52.2276 52.9427C52.4089 53.299 52.664 53.571 52.9887 53.7607C53.3134 53.9505 53.6929 54.0453 54.1251 54.0453L54.1272 54.0432ZM62.3704 48.7009L61.4955 53.9294H62.3261L63.2348 48.7009H62.3704ZM57.6184 51.3152C57.551 51.8085 57.591 52.2618 57.7428 52.6792C57.8946 53.0882 58.137 53.4171 58.4702 53.668C58.8117 53.9104 59.227 54.0327 59.7203 54.0327C60.0682 54.0327 60.3865 53.9652 60.6754 53.8282C60.9705 53.6848 61.2277 53.4867 61.4491 53.2379C61.6684 52.987 61.8497 52.7003 61.9951 52.3735C62.1385 52.0404 62.2376 51.6883 62.2903 51.3173C62.3367 50.961 62.3367 50.6237 62.2903 50.3053C62.2523 49.9785 62.1659 49.6876 62.0289 49.4304C61.8918 49.1732 61.7021 48.9687 61.4596 48.8169C61.2256 48.6651 60.9326 48.5892 60.5847 48.5892C60.0914 48.5808 59.6339 48.6988 59.2101 48.9413C58.7927 49.1837 58.4406 49.5126 58.1539 49.93C57.8735 50.339 57.6943 50.8008 57.6205 51.3173L57.6184 51.3152ZM58.5271 51.3152C58.5882 50.9589 58.7168 50.6363 58.9129 50.3496C59.1174 50.0608 59.3683 49.8373 59.6634 49.6792C59.9586 49.5126 60.2727 49.4325 60.6079 49.4409C60.8356 49.4494 61.0317 49.5063 61.1982 49.6117C61.3732 49.7108 61.5166 49.8457 61.6304 50.0207C61.7443 50.1957 61.8244 50.3918 61.8686 50.611C61.915 50.8303 61.9171 51.0664 61.8792 51.3152C61.8328 51.5724 61.7464 51.8148 61.6178 52.0425C61.4955 52.2702 61.3458 52.4705 61.1624 52.6455C60.9811 52.812 60.7787 52.9448 60.5594 53.0439C60.3465 53.1346 60.1272 53.181 59.8995 53.181C59.5664 53.181 59.286 53.0987 59.0584 52.9301C58.8391 52.7551 58.6831 52.5295 58.5924 52.247C58.5018 51.9582 58.4786 51.6483 58.525 51.3152H58.5271ZM65.6972 48.7009H64.7991L63.8905 53.9294H64.7991L65.6972 48.7009ZM67.0739 49.6897L67.6769 48.9624C67.5398 48.8338 67.3965 48.7389 67.2447 48.6777C67.1013 48.6166 66.9369 48.5871 66.7556 48.5871C66.452 48.5871 66.1716 48.6925 65.9144 48.9054C65.6635 49.1184 65.4527 49.3861 65.2777 49.7129C65.1111 50.0397 64.9931 50.3791 64.9256 50.7354H65.3473C65.3936 50.5161 65.4527 50.3074 65.5286 50.1092C65.6108 49.9132 65.7246 49.7487 65.8701 49.6201C66.0219 49.4915 66.2116 49.4304 66.4393 49.4388C66.5679 49.4388 66.6818 49.462 66.7809 49.5063C66.88 49.5527 66.9769 49.6117 67.076 49.6876L67.0739 49.6897ZM71.4949 50.748L70.9489 53.9315H71.8364L72.4057 50.6342C72.4584 50.2695 72.4394 49.9322 72.3488 49.6222C72.2665 49.3123 72.1105 49.0614 71.8828 48.8717C71.6636 48.682 71.36 48.5871 70.9742 48.5871C70.6263 48.5871 70.3185 48.6672 70.0529 48.8253C69.7872 48.9771 69.5574 49.1964 69.3593 49.4852L69.4836 48.7009H68.5855L67.6769 53.9294H68.5855L69.1548 50.7017C69.1927 50.4592 69.2791 50.2442 69.4162 50.0544C69.5595 49.8647 69.7387 49.7171 69.9496 49.6117C70.1688 49.4979 70.4092 49.4409 70.6664 49.4409C70.9236 49.4409 71.107 49.5021 71.2356 49.6222C71.3642 49.7445 71.4485 49.9026 71.4865 50.0987C71.5244 50.2948 71.5286 50.5119 71.497 50.7459L71.4949 50.748ZM77.4697 52.3503L76.7318 52.772C76.8309 52.9765 76.9743 53.1768 77.164 53.3749C77.3537 53.571 77.5856 53.7354 77.8576 53.864C78.138 53.9863 78.4521 54.0453 78.8021 54.0453C79.1521 54.0453 79.4725 53.9737 79.7466 53.8303C80.0186 53.6785 80.2315 53.4782 80.3833 53.2273C80.5414 52.9765 80.6215 52.7003 80.6215 52.3967C80.6215 52.0931 80.5541 51.8359 80.417 51.6462C80.2884 51.4501 80.1134 51.2857 79.8942 51.157C79.6749 51.0284 79.4367 50.9062 79.1774 50.7923C79.0108 50.7164 78.8548 50.6405 78.7115 50.5646C78.5744 50.4887 78.4648 50.4023 78.3826 50.3032C78.3003 50.1978 78.2582 50.0755 78.2582 49.9385C78.2582 49.7635 78.3256 49.6244 78.4627 49.5168C78.606 49.4114 78.7958 49.3587 79.0319 49.3587C79.268 49.3587 79.4936 49.4262 79.6918 49.5632C79.8963 49.6918 80.0713 49.8541 80.2146 50.0523L80.8851 49.5969C80.7269 49.3081 80.4908 49.0699 80.1809 48.8801C79.871 48.6841 79.5063 48.585 79.0888 48.585C78.8084 48.585 78.5365 48.6377 78.2708 48.7431C78.0136 48.8485 77.8007 49.013 77.6341 49.2322C77.4676 49.4451 77.3833 49.7171 77.3833 50.0502C77.3833 50.339 77.4507 50.5773 77.5878 50.767C77.7248 50.9483 77.8956 51.1001 78.1001 51.2224C78.3046 51.3362 78.5048 51.4311 78.703 51.507C78.8611 51.5745 79.0214 51.6546 79.1795 51.7453C79.3376 51.8275 79.4704 51.9308 79.5779 52.0531C79.6833 52.1753 79.7361 52.3229 79.7361 52.4958C79.7361 52.7003 79.6559 52.8753 79.4978 53.0186C79.3397 53.1557 79.131 53.2231 78.8717 53.2231C78.6587 53.2231 78.4669 53.1852 78.2919 53.1093C78.1169 53.0271 77.963 52.9195 77.826 52.7909C77.6974 52.6539 77.5793 52.5063 77.4739 52.3482L77.4697 52.3503ZM82.7867 45.0642L81.2856 53.9315H82.1732L83.708 45.0642H82.7867ZM84.9118 48.7009L82.365 50.8261L84.2751 53.9294H85.3545L83.4339 50.9272L86.0714 48.6988H84.9118V48.7009ZM87.4438 46.5421C87.4438 46.7086 87.505 46.852 87.6251 46.9743C87.7474 47.0966 87.8908 47.1556 88.0573 47.1556C88.2239 47.1556 88.3799 47.0945 88.5 46.9743C88.6223 46.852 88.6814 46.7086 88.6814 46.5421C88.6814 46.3755 88.6202 46.2195 88.5 46.0994C88.3799 45.9771 88.2302 45.918 88.0573 45.918C87.8844 45.918 87.7474 45.9792 87.6251 46.0994C87.505 46.2216 87.4438 46.3692 87.4438 46.5421ZM87.2288 48.7009L86.3644 53.9294H87.2625L88.1501 48.7009H87.2288ZM90.5598 45.0642L89.0587 53.9315H89.9337L91.4685 45.0642H90.5598ZM93.0897 45.0642L91.5886 53.9315H92.4636L93.9984 45.0642H93.0897ZM94.6899 52.3503L93.952 52.772C94.0511 52.9765 94.1944 53.1768 94.3842 53.3749C94.5739 53.571 94.8058 53.7354 95.0778 53.864C95.3582 53.9863 95.6723 54.0453 96.0223 54.0453C96.3722 54.0453 96.6927 53.9737 96.9668 53.8303C97.2387 53.6785 97.4517 53.4782 97.6035 53.2273C97.7616 52.9765 97.8417 52.7003 97.8417 52.3967C97.8417 52.0931 97.7742 51.8359 97.6372 51.6462C97.5086 51.4501 97.3336 51.2857 97.1144 51.157C96.8951 51.0284 96.6569 50.9062 96.3975 50.7923C96.231 50.7164 96.075 50.6405 95.9316 50.5646C95.7946 50.4887 95.685 50.4023 95.6027 50.3032C95.5205 50.1978 95.4784 50.0755 95.4784 49.9385C95.4784 49.7635 95.5458 49.6244 95.6829 49.5168C95.8262 49.4114 96.016 49.3587 96.2521 49.3587C96.4882 49.3587 96.7138 49.4262 96.912 49.5632C97.1165 49.6918 97.2914 49.8541 97.4348 50.0523L98.1052 49.5969C97.9471 49.3081 97.711 49.0699 97.4011 48.8801C97.0912 48.6841 96.7264 48.585 96.309 48.585C96.0286 48.585 95.7566 48.6377 95.491 48.7431C95.2338 48.8485 95.0209 49.013 94.8543 49.2322C94.6878 49.4451 94.6034 49.7171 94.6034 50.0502C94.6034 50.339 94.6709 50.5773 94.8079 50.767C94.945 50.9483 95.1157 51.1001 95.3202 51.2224C95.5247 51.3362 95.725 51.4311 95.9232 51.507C96.0813 51.5745 96.2415 51.6546 96.3997 51.7453C96.5578 51.8275 96.6906 51.9308 96.7981 52.0531C96.9035 52.1753 96.9562 52.3229 96.9562 52.4958C96.9562 52.7003 96.8761 52.8753 96.718 53.0186C96.5599 53.1557 96.3512 53.2231 96.0919 53.2231C95.8789 53.2231 95.6871 53.1852 95.5121 53.1093C95.3371 53.0271 95.1832 52.9195 95.0462 52.7909C94.9176 52.6539 94.7995 52.5063 94.6941 52.3482L94.6899 52.3503ZM102.117 48.7009L101.959 49.5527H104.516L104.664 48.7009H102.117ZM103.22 46.8815L102.037 53.9294H102.912L104.139 46.8815H103.218H103.22ZM107.044 45.0642H106.146L104.622 53.9315H105.52L107.044 45.0642ZM108.431 50.748L107.885 53.9315H108.773L109.342 50.6342C109.389 50.2484 109.37 49.9026 109.285 49.5991C109.203 49.2891 109.047 49.0425 108.819 48.8612C108.592 48.6799 108.288 48.5892 107.911 48.5892C107.533 48.5892 107.192 48.6925 106.888 48.897C106.593 49.0931 106.351 49.3545 106.161 49.6813C105.971 50.0081 105.838 50.3601 105.762 50.7375H106.07C106.131 50.5035 106.228 50.2863 106.365 50.0903C106.509 49.8942 106.684 49.734 106.888 49.6138C107.101 49.4915 107.339 49.4346 107.605 49.443C107.856 49.4515 108.046 49.5147 108.174 49.637C108.303 49.7508 108.387 49.9069 108.425 50.1029C108.463 50.2927 108.467 50.5077 108.436 50.7502L108.431 50.748ZM115.159 48.7009L114.284 53.9294H115.115L116.023 48.7009H115.159ZM110.407 51.3152C110.339 51.8085 110.379 52.2618 110.531 52.6792C110.683 53.0882 110.925 53.4171 111.259 53.668C111.6 53.9104 112.015 54.0327 112.509 54.0327C112.857 54.0327 113.175 53.9652 113.464 53.8282C113.759 53.6848 114.016 53.4867 114.238 53.2379C114.457 52.987 114.638 52.7003 114.784 52.3735C114.927 52.0404 115.026 51.6883 115.079 51.3173C115.125 50.961 115.125 50.6237 115.079 50.3053C115.041 49.9785 114.954 49.6876 114.817 49.4304C114.68 49.1732 114.491 48.9687 114.248 48.8169C114.014 48.6651 113.721 48.5892 113.373 48.5892C112.88 48.5808 112.422 48.6988 111.999 48.9413C111.581 49.1837 111.229 49.5126 110.942 49.93C110.662 50.339 110.483 50.8008 110.409 51.3173L110.407 51.3152ZM111.316 51.3152C111.377 50.9589 111.505 50.6363 111.701 50.3496C111.906 50.0608 112.157 49.8373 112.452 49.6792C112.747 49.5126 113.061 49.4325 113.396 49.4409C113.624 49.4494 113.82 49.5063 113.987 49.6117C114.162 49.7108 114.305 49.8457 114.419 50.0207C114.533 50.1957 114.613 50.3918 114.657 50.611C114.703 50.8303 114.706 51.0664 114.668 51.3152C114.621 51.5724 114.535 51.8148 114.406 52.0425C114.284 52.2702 114.134 52.4705 113.951 52.6455C113.77 52.812 113.567 52.9448 113.348 53.0439C113.135 53.1346 112.916 53.181 112.688 53.181C112.355 53.181 112.074 53.0987 111.847 52.9301C111.628 52.7551 111.472 52.5295 111.381 52.247C111.29 51.9582 111.267 51.6483 111.313 51.3152H111.316ZM116.837 48.7009L116.679 49.5527H119.236L119.384 48.7009H116.837ZM117.94 46.8815L116.757 53.9294H117.632L118.859 46.8815H117.938H117.94ZM130.288 50.6342C130.334 50.2695 130.321 49.9322 130.254 49.6222C130.193 49.3123 130.058 49.0614 129.845 48.8717C129.64 48.682 129.349 48.5871 128.97 48.5871C128.591 48.5871 128.27 48.6777 127.981 48.8591C127.692 49.0404 127.448 49.287 127.243 49.5969C127.197 49.3924 127.119 49.2132 127.005 49.0636C126.9 48.9118 126.754 48.7937 126.573 48.7115C126.398 48.6293 126.187 48.5871 125.936 48.5871C125.723 48.5871 125.527 48.6208 125.346 48.6904C125.165 48.7579 124.998 48.8569 124.846 48.9855C124.703 49.1078 124.57 49.2554 124.448 49.4283L124.562 48.7009H123.664L122.755 53.9294H123.664L124.233 50.689C124.271 50.4466 124.351 50.2336 124.471 50.0523C124.6 49.8626 124.762 49.715 124.96 49.6096C125.165 49.5042 125.392 49.4515 125.643 49.4515C125.894 49.4515 126.061 49.5126 126.166 49.6328C126.28 49.7466 126.347 49.9026 126.371 50.0987C126.394 50.2948 126.389 50.5119 126.36 50.7459L125.814 53.9294H126.689L127.245 50.7227C127.283 50.4803 127.364 50.2653 127.484 50.0755C127.612 49.8858 127.775 49.734 127.973 49.6201C128.177 49.5063 128.409 49.4494 128.666 49.4494C128.909 49.4494 129.084 49.5105 129.189 49.6307C129.303 49.7445 129.371 49.9005 129.394 50.0966C129.423 50.2927 129.423 50.5098 129.394 50.7438L128.825 53.9273H129.733L130.29 50.63L130.288 50.6342ZM136.119 48.7009L135.244 53.9294H136.075L136.983 48.7009H136.119ZM131.367 51.3152C131.3 51.8085 131.34 52.2618 131.491 52.6792C131.643 53.0882 131.886 53.4171 132.219 53.668C132.56 53.9104 132.976 54.0327 133.469 54.0327C133.817 54.0327 134.135 53.9652 134.424 53.8282C134.719 53.6848 134.976 53.4867 135.198 53.2379C135.417 52.987 135.598 52.7003 135.744 52.3735C135.887 52.0404 135.986 51.6883 136.039 51.3173C136.085 50.961 136.085 50.6237 136.039 50.3053C136.001 49.9785 135.915 49.6876 135.778 49.4304C135.641 49.1732 135.451 48.9687 135.208 48.8169C134.974 48.6651 134.681 48.5892 134.333 48.5892C133.84 48.5808 133.383 48.6988 132.959 48.9413C132.541 49.1837 132.189 49.5126 131.903 49.93C131.622 50.339 131.443 50.8008 131.369 51.3173L131.367 51.3152ZM132.276 51.3152C132.337 50.9589 132.465 50.6363 132.662 50.3496C132.866 50.0608 133.117 49.8373 133.412 49.6792C133.707 49.5126 134.021 49.4325 134.357 49.4409C134.584 49.4494 134.78 49.5063 134.947 49.6117C135.122 49.7108 135.265 49.8457 135.379 50.0207C135.493 50.1957 135.573 50.3918 135.617 50.611C135.664 50.8303 135.666 51.0664 135.628 51.3152C135.581 51.5724 135.495 51.8148 135.366 52.0425C135.244 52.2702 135.094 52.4705 134.911 52.6455C134.73 52.812 134.527 52.9448 134.308 53.0439C134.095 53.1346 133.876 53.181 133.648 53.181C133.315 53.181 133.035 53.0987 132.807 52.9301C132.588 52.7551 132.432 52.5295 132.341 52.247C132.25 51.9582 132.227 51.6483 132.274 51.3152H132.276ZM137.797 48.7009L137.639 49.5527H140.196L140.344 48.7009H137.797ZM138.9 46.8815L137.717 53.9294H138.592L139.819 46.8815H138.898H138.9ZM140.452 48.7009L140.293 49.5527H142.851L142.998 48.7009H140.452ZM141.554 46.8815L140.371 53.9294H141.246L142.473 46.8815H141.552H141.554ZM145.151 54.0432C145.712 54.0432 146.205 53.9189 146.629 53.668C147.052 53.4171 147.402 53.0987 147.674 52.7129L146.958 52.247C146.768 52.519 146.525 52.7467 146.23 52.9301C145.941 53.1051 145.621 53.1915 145.265 53.1915C144.946 53.1915 144.685 53.1262 144.48 52.9975C144.276 52.8605 144.124 52.6708 144.025 52.4283C143.926 52.1859 143.877 51.9097 143.877 51.5977C143.877 51.2856 143.924 51.0221 144.014 50.7565C144.114 50.4845 144.248 50.2442 144.423 50.0397C144.598 49.8352 144.803 49.6749 145.037 49.5632C145.279 49.4409 145.545 49.3819 145.832 49.3819C146.118 49.3819 146.344 49.4346 146.525 49.54C146.707 49.6454 146.844 49.7972 146.934 49.9954C147.033 50.1851 147.082 50.4171 147.082 50.689C147.082 50.7944 147.067 50.902 147.036 51.0074C147.006 51.1065 146.97 51.2013 146.932 51.292L147.284 50.7691H143.534V51.5429H147.887C147.917 51.4817 147.944 51.3847 147.967 51.2477C147.997 51.1107 148.014 50.9863 148.014 50.8724C148.014 50.3728 147.927 49.9553 147.752 49.6222C147.577 49.2807 147.331 49.0235 147.015 48.8485C146.705 48.6735 146.329 48.5871 145.889 48.5871C145.471 48.5871 145.085 48.6693 144.729 48.838C144.381 49.0045 144.073 49.2322 143.808 49.521C143.551 49.8014 143.346 50.1282 143.194 50.4993C143.051 50.864 142.979 51.2498 142.979 51.6588C142.979 52.1585 143.07 52.5864 143.251 52.9427C143.433 53.299 143.688 53.571 144.012 53.7607C144.339 53.9505 144.716 54.0453 145.149 54.0453L145.151 54.0432ZM150.436 48.7009H149.538L148.629 53.9294H149.538L150.436 48.7009ZM151.813 49.6897L152.416 48.9624C152.279 48.8338 152.135 48.7389 151.984 48.6777C151.84 48.6166 151.676 48.5871 151.495 48.5871C151.191 48.5871 150.911 48.6925 150.653 48.9054C150.402 49.1184 150.192 49.3861 150.017 49.7129C149.85 50.0397 149.732 50.3791 149.665 50.7354H150.086C150.133 50.5161 150.192 50.3074 150.268 50.1092C150.352 49.9132 150.464 49.7487 150.609 49.6201C150.761 49.4915 150.951 49.4304 151.178 49.4388C151.307 49.4388 151.421 49.462 151.52 49.5063C151.619 49.5506 151.716 49.6117 151.815 49.6876L151.813 49.6897Z" fill="#2B2B2B"/>
</g>
<defs>
<clipPath id="clip0_5_2262">
<rect width="210.825" height="55" fill="white" transform="translate(0 0.5)"/>
</clipPath>
</defs>
</svg>
