<svg width="27" height="36" viewBox="0 0 27 36" fill="none" xmlns="http://www.w3.org/2000/svg">
<path d="M5.57547 9.56009C3.87837 10.372 2.13701 11.1158 0.35145 11.7915C1.99749 12.4054 3.59195 13.1496 5.11962 14.0171C6.55707 14.846 7.83155 15.9298 8.88066 17.2154C9.81202 18.352 10.6461 19.565 11.3741 20.8416C12.7989 23.317 13.764 26.0298 14.2229 28.849C14.575 30.9159 14.911 32.9862 15.2308 35.0599C15.9542 32.2683 16.7943 29.5164 17.7513 26.8041C18.6545 24.3083 19.8758 21.9394 21.385 19.756C22.1513 18.7104 23.0185 17.7426 23.974 16.8664C24.8834 16.0585 25.8731 15.3458 26.9276 14.7395C26.1302 14.2733 25.3054 13.7308 24.4535 13.1121C20.2074 10.0173 16.5241 5.80022 13.4037 0.460708C13.3537 0.673577 13.2899 0.882975 13.2127 1.08756C12.549 2.91686 11.5351 4.59922 10.2277 6.04051C8.92918 7.51441 7.34698 8.71141 5.57547 9.56009Z" fill="#FAFAFA"/>
</svg>
