<svg width="28" height="36" viewBox="0 0 28 36" fill="none" xmlns="http://www.w3.org/2000/svg">
<path d="M5.70538 9.56009C4.00828 10.372 2.26693 11.1158 0.481363 11.7915C2.1274 12.4054 3.72186 13.1496 5.24953 14.0171C6.68698 14.846 7.96146 15.9298 9.01058 17.2154C9.94193 18.352 10.776 19.565 11.504 20.8416C12.9288 23.317 13.894 26.0298 14.3528 28.849C14.7049 30.9159 15.0409 32.9862 15.3607 35.0599C16.0841 32.2683 16.9242 29.5164 17.8812 26.8041C18.7844 24.3083 20.0057 21.9394 21.5149 19.756C22.2812 18.7104 23.1484 17.7426 24.1039 16.8664C25.0133 16.0585 26.003 15.3458 27.0575 14.7395C26.2601 14.2733 25.4354 13.7308 24.5834 13.1121C20.3373 10.0173 16.6541 5.80022 13.5336 0.460708C13.4836 0.673577 13.4198 0.882975 13.3426 1.08756C12.6789 2.91686 11.6651 4.59922 10.3576 6.04051C9.05909 7.51441 7.47689 8.71141 5.70538 9.56009Z" fill="#FAFAFA"/>
</svg>
