<svg width="93" height="107" viewBox="0 0 93 107" fill="none" xmlns="http://www.w3.org/2000/svg">
<g filter="url(#filter0_dd_5_4)">
<path d="M50.8114 51.3974H66.8809L46.4402 15.9995L26.0003 51.3974H42.0691" fill="#AFB9D2"/>
<path d="M50.8115 51.3972H58.649L46.4412 31.1206L34.2317 51.3972H42.0692" fill="#E4EAF7"/>
<path d="M66.8809 51.3977H26.0003L32.4581 40.2124L37.8489 30.8781L46.4401 15.9998L55.0334 30.8806L60.4229 40.2137L66.8809 51.3977Z" fill="#BEC8DC"/>
<path d="M58.649 51.3976H34.2316L36.6238 47.4252L42.1266 38.2864L46.4411 31.1206L50.7556 38.2876L56.2576 47.4265L58.649 51.3976Z" fill="#E4EAF7"/>
<path d="M60.4233 40.2138L53.9653 51.3978H38.9175L32.4583 40.2125L37.8492 30.8782L46.4412 45.759L55.0336 30.8806L60.4233 40.2138Z" fill="#95A5B9"/>
<path d="M56.2577 47.4267L53.9653 51.3979H38.9174L36.6238 47.4254L42.1267 38.2866L46.4412 45.7591L50.7556 38.2879L56.2577 47.4267Z" fill="#BEC8DC"/>
<path d="M66.881 23.55L46.4413 58.9482L26.0004 23.55H34.2328L46.441 44.6932L58.6498 23.55H66.881Z" fill="#7DE6C4"/>
<path d="M58.6499 23.55L46.4413 44.693L34.2329 23.55H42.0701L46.4412 31.1208L50.8127 23.55H58.6499Z" fill="#707384"/>
<path d="M64.9118 70.9993H27.9701C26.8819 70.9993 26 70.1174 26 69.0297V57.2021C26 56.1139 26.8819 55.2324 27.9701 55.2324H64.9118C66 55.2324 66.8815 56.114 66.8815 57.2021V69.0298C66.8815 70.1174 65.9999 70.9993 64.9118 70.9993Z" fill="#B9EBFF"/>
<path d="M64.9118 55.2319H61.3132C62.4014 55.2319 63.2833 56.1139 63.2833 57.2016V69.0298C63.2833 70.1174 62.4014 70.9994 61.3132 70.9994H64.9118C66 70.9994 66.8815 70.1175 66.8815 69.0297V57.2015C66.8815 56.114 65.9995 55.2319 64.9118 55.2319Z" fill="#A0DCF0"/>
<path d="M30.2964 59.3437C30.2964 59.1532 30.4064 58.9932 30.6262 58.8646C30.8466 58.7356 31.077 58.671 31.3178 58.671C31.625 58.671 31.8079 58.7793 31.8658 58.995L33.7718 65.7458L35.6655 58.995C35.7234 58.7793 35.9063 58.671 36.2134 58.671C36.4459 58.671 36.6746 58.7377 36.8987 58.8704C37.1228 59.0033 37.2352 59.1611 37.2352 59.3437C37.2352 59.3604 37.2269 59.402 37.21 59.4683L34.8183 67.3025C34.7687 67.4771 34.6441 67.6122 34.4448 67.7075C34.2454 67.8028 34.021 67.8506 33.7722 67.8506C33.199 67.8506 32.8503 67.668 32.7256 67.3025L30.3213 59.4683C30.3044 59.402 30.2966 59.3604 30.2966 59.3437H30.2964ZM37.484 65.3597V62.3704C37.484 62.2458 37.565 62.1295 37.727 62.0217C37.889 61.9138 38.0779 61.8597 38.2939 61.8597C38.5016 61.8597 38.6863 61.9134 38.8482 62.0212C39.0102 62.1291 39.0912 62.2449 39.0912 62.3686V65.35C39.0912 65.6401 39.199 65.8989 39.4152 66.1264C39.6313 66.3541 39.8885 66.468 40.1876 66.468C40.4864 66.468 40.7419 66.3541 40.9535 66.1264C41.1654 65.8989 41.2711 65.64 41.2711 65.35V62.3565C41.2711 62.2244 41.3521 62.108 41.5141 62.0087C41.6761 61.9092 41.8649 61.8597 42.0809 61.8597C42.3134 61.8597 42.5048 61.9096 42.6541 62.009C42.8034 62.1085 42.8782 62.2251 42.8782 62.3578V65.3593C42.8782 66.0319 42.6122 66.6219 42.0809 67.128C41.5493 67.6349 40.9182 67.8879 40.1872 67.8879C39.4567 67.8879 38.8235 67.6349 38.2877 67.128C37.7522 66.6219 37.484 66.0323 37.484 65.3597ZM43.8496 65.335V64.2758C43.8496 63.5952 44.1157 63.0098 44.6473 62.5197C45.1785 62.0301 45.8222 61.7849 46.5779 61.7849C47.2837 61.7849 47.888 62.0082 48.3907 62.4543C48.893 62.9007 49.1443 63.4613 49.1443 64.1373C49.1443 64.3841 49.1133 64.5872 49.0508 64.7479C48.9887 64.9082 48.893 65.0211 48.7642 65.0869C48.6353 65.1528 48.5171 65.1939 48.4091 65.2103C48.3013 65.2271 48.1599 65.235 47.9858 65.235H45.4568V65.4219C45.4568 65.7789 45.5898 66.0675 45.8553 66.2875C46.1214 66.5074 46.4744 66.6177 46.9145 66.6177C47.2301 66.6177 47.5414 66.5389 47.8486 66.3811C48.1558 66.2233 48.355 66.1444 48.4465 66.1444C48.6211 66.1444 48.7663 66.2254 48.8825 66.3869C48.9988 66.5489 49.0571 66.7046 49.0571 66.8539C49.0571 67.0864 48.8473 67.3172 48.428 67.5455C48.0085 67.7738 47.4872 67.8879 46.8645 67.8879C45.9758 67.8879 45.251 67.6534 44.6905 67.1842C44.13 66.7151 43.8496 66.0986 43.8496 65.335ZM45.4568 64.2884H47.2754C47.4084 64.2884 47.5015 64.267 47.5558 64.2247C47.6098 64.1818 47.6367 64.0988 47.6367 63.9745C47.6367 63.703 47.531 63.482 47.319 63.3116C47.1071 63.1408 46.8474 63.0556 46.5406 63.0556C46.2499 63.0556 45.9963 63.1386 45.7807 63.3057C45.5646 63.4722 45.4568 63.6913 45.4568 63.9628V64.2884ZM49.6424 65.3723C49.6424 65.0731 49.7045 64.8679 49.8291 64.7559C49.9538 64.6438 50.1615 64.5875 50.4522 64.5875C50.9588 64.5875 51.2285 64.7579 51.2617 65.0982C51.2949 65.987 51.7229 66.431 52.5449 66.431C53.4253 66.431 53.8654 65.9534 53.8654 64.9984V60.091H52.5948C52.437 60.091 52.3124 60.0205 52.221 59.8795C52.1296 59.7384 52.0841 59.5682 52.0841 59.3688C52.0841 59.1779 52.1279 59.0139 52.2147 58.877C52.302 58.7398 52.4286 58.6714 52.5949 58.6714H54.7747C54.9657 58.6714 55.1318 58.7172 55.2732 58.8083C55.4142 58.8997 55.4848 59.0243 55.4848 59.1821V64.9984C55.4848 65.9781 55.2212 66.6987 54.6937 67.1594C54.1663 67.6202 53.4753 67.8506 52.6196 67.8506C51.7392 67.8506 51.0229 67.6285 50.4708 67.1841C49.9186 66.7403 49.6424 66.136 49.6424 65.3723ZM56.4939 66.3437C56.4939 66.1528 56.5665 65.9598 56.7117 65.7642C56.8569 65.5695 57.021 65.4717 57.2039 65.4717C57.3117 65.4717 57.4343 65.5233 57.5715 65.627C57.711 65.7333 57.8441 65.8478 57.9701 65.9698C58.0986 66.0949 58.2831 66.2094 58.5244 66.3126C58.7653 66.4163 59.0309 66.4679 59.3217 66.4679C59.7203 66.4679 60.0523 66.3769 60.3183 66.1944C60.5839 66.0113 60.7169 65.7416 60.7169 65.3844C60.7169 65.1356 60.6438 64.9137 60.4988 64.7181C60.3536 64.5234 60.1626 64.3614 59.9259 64.2325C59.6724 64.0956 59.4125 63.9709 59.1471 63.8587C58.8576 63.735 58.5731 63.6001 58.2941 63.4542C58.0075 63.3044 57.7456 63.1366 57.5089 62.9494C57.2723 62.7627 57.0814 62.5139 56.9362 62.202C56.7906 61.8907 56.718 61.5357 56.718 61.1371C56.718 60.6906 56.8074 60.2966 56.9857 59.9551C57.1644 59.6139 57.4032 59.3483 57.702 59.1586C57.9981 58.9705 58.3218 58.8298 58.6612 58.7416C59.002 58.6529 59.3628 58.6089 59.7451 58.6089C59.9612 58.6089 60.1894 58.6239 60.4304 58.6534C60.6712 58.6837 60.9263 58.7327 61.1965 58.8006C61.4659 58.8691 61.6862 58.9757 61.8566 59.1204C62.027 59.2657 62.1122 59.4359 62.1122 59.632C62.1122 59.8169 62.0538 60.0084 61.9376 60.2056C61.8214 60.4033 61.6637 60.5018 61.4643 60.5018C61.3895 60.5018 61.1861 60.4233 60.8537 60.2651C60.5214 60.1077 60.1522 60.0285 59.7451 60.0285C59.297 60.0285 58.9499 60.1136 58.7049 60.284C58.4598 60.4544 58.3373 60.689 58.3373 60.9876C58.3373 61.2286 58.4372 61.4384 58.6364 61.6167C58.8358 61.7954 59.083 61.9407 59.3775 62.0527C59.6725 62.1648 59.9922 62.3062 60.3368 62.4761C60.6813 62.6464 61.001 62.8311 61.2961 63.0304C61.591 63.2297 61.8381 63.5184 62.0375 63.8961C62.2368 64.2738 62.3361 64.716 62.3361 65.2225C62.3361 66.0744 62.0644 66.7315 61.5205 67.1938C60.9763 67.6567 60.26 67.8879 59.3712 67.8879C58.5823 67.8879 57.9055 67.7259 57.3411 67.402C56.7759 67.0784 56.4939 66.7256 56.4939 66.3437Z" fill="#54A1FF"/>
</g>
<defs>
<filter id="filter0_dd_5_4" x="0.390519" y="0.146021" width="92.1004" height="106.219" filterUnits="userSpaceOnUse" color-interpolation-filters="sRGB">
<feFlood flood-opacity="0" result="BackgroundImageFix"/>
<feColorMatrix in="SourceAlpha" type="matrix" values="0 0 0 0 0 0 0 0 0 0 0 0 0 0 0 0 0 0 127 0" result="hardAlpha"/>
<feMorphology radius="3.6585" operator="erode" in="SourceAlpha" result="effect1_dropShadow_5_4"/>
<feOffset dy="9.75599"/>
<feGaussianBlur stdDeviation="14.634"/>
<feColorMatrix type="matrix" values="0 0 0 0 0.0627451 0 0 0 0 0.0941176 0 0 0 0 0.156863 0 0 0 0.1 0"/>
<feBlend mode="normal" in2="BackgroundImageFix" result="effect1_dropShadow_5_4"/>
<feColorMatrix in="SourceAlpha" type="matrix" values="0 0 0 0 0 0 0 0 0 0 0 0 0 0 0 0 0 0 127 0" result="hardAlpha"/>
<feMorphology radius="3.6585" operator="erode" in="SourceAlpha" result="effect2_dropShadow_5_4"/>
<feOffset dy="9.75599"/>
<feGaussianBlur stdDeviation="14.634"/>
<feColorMatrix type="matrix" values="0 0 0 0 0.0627451 0 0 0 0 0.0941176 0 0 0 0 0.156863 0 0 0 0.05 0"/>
<feBlend mode="normal" in2="effect1_dropShadow_5_4" result="effect2_dropShadow_5_4"/>
<feBlend mode="normal" in="SourceGraphic" in2="effect2_dropShadow_5_4" result="shape"/>
</filter>
</defs>
</svg>
