<svg width="55" height="55" viewBox="0 0 55 55" fill="none" xmlns="http://www.w3.org/2000/svg">
<g clip-path="url(#clip0_5_71)">
<path d="M27.5 54.9995C42.6878 54.9995 55 42.6873 55 27.4995C55 12.3117 42.6878 -0.000488281 27.5 -0.000488281C12.3122 -0.000488281 0 12.3117 0 27.4995C0 42.6873 12.3122 54.9995 27.5 54.9995Z" fill="#27273D"/>
<path d="M6.34436 19.1948H22.2997V34.8612H6.34436V19.1948Z" fill="#27273D"/>
<path d="M22.9485 17.0098H5.69657C5.20059 17.0098 4.79852 17.4118 4.79852 17.9078V22.3422C4.79852 22.8382 5.20059 23.2402 5.69657 23.2402H22.9485C23.4445 23.2402 23.8466 22.8382 23.8466 22.3422V17.9078C23.8466 17.4118 23.4445 17.0098 22.9485 17.0098Z" fill="#4F4F74"/>
<path d="M23.8476 21.9909V22.3433C23.8476 22.5817 23.7529 22.8104 23.5843 22.979C23.4157 23.1477 23.187 23.2424 22.9485 23.2424H5.69335C5.45554 23.2415 5.22779 23.1464 5.06004 22.9778C4.89228 22.8093 4.79824 22.5811 4.79852 22.3433V17.9078C4.79852 17.6702 4.8927 17.4423 5.06042 17.2739C5.22814 17.1056 5.45573 17.0106 5.69335 17.0098H6.2455V21.0918C6.2455 21.2099 6.26875 21.3268 6.31394 21.4359C6.35912 21.545 6.42535 21.6441 6.50884 21.7276C6.59233 21.8111 6.69145 21.8773 6.80054 21.9225C6.90962 21.9677 7.02654 21.9909 7.14462 21.9909H23.8476Z" fill="#3E436D"/>
<path d="M7.47655 19.3591H6.50009C6.34643 19.3591 6.22186 19.4837 6.22186 19.6374V20.6138C6.22186 20.7675 6.34643 20.892 6.50009 20.892H7.47655C7.63021 20.892 7.75477 20.7675 7.75477 20.6138V19.6374C7.75477 19.4837 7.63021 19.3591 7.47655 19.3591Z" fill="#F6D372"/>
<path d="M9.47356 19.3591H8.49709C8.34344 19.3591 8.21887 19.4837 8.21887 19.6374V20.6138C8.21887 20.7675 8.34344 20.892 8.49709 20.892H9.47356C9.62722 20.892 9.75178 20.7675 9.75178 20.6138V19.6374C9.75178 19.4837 9.62722 19.3591 9.47356 19.3591Z" fill="#F6C752"/>
<path d="M11.4716 19.3591H10.4951C10.3415 19.3591 10.2169 19.4837 10.2169 19.6374V20.6138C10.2169 20.7675 10.3415 20.892 10.4951 20.892H11.4716C11.6253 20.892 11.7498 20.7675 11.7498 20.6138V19.6374C11.7498 19.4837 11.6253 19.3591 11.4716 19.3591Z" fill="#F7BB38"/>
<path d="M21.7669 17.7166H14.459C14.2324 17.7166 14.0486 17.9003 14.0486 18.1269V18.4621C14.0486 18.6887 14.2324 18.8724 14.459 18.8724H21.7669C21.9935 18.8724 22.1773 18.6887 22.1773 18.4621V18.1269C22.1773 17.9003 21.9935 17.7166 21.7669 17.7166Z" fill="#32314B"/>
<path d="M21.7669 19.5471H14.459C14.2324 19.5471 14.0486 19.7308 14.0486 19.9575V20.2926C14.0486 20.5193 14.2324 20.703 14.459 20.703H21.7669C21.9935 20.703 22.1773 20.5193 22.1773 20.2926V19.9575C22.1773 19.7308 21.9935 19.5471 21.7669 19.5471Z" fill="#32314B"/>
<path d="M21.7669 21.3774H14.459C14.2324 21.3774 14.0486 21.5612 14.0486 21.7878V22.1229C14.0486 22.3496 14.2324 22.5333 14.459 22.5333H21.7669C21.9935 22.5333 22.1773 22.3496 22.1773 22.1229V21.7878C22.1773 21.5612 21.9935 21.3774 21.7669 21.3774Z" fill="#32314B"/>
<path d="M22.9485 24.0889H5.69657C5.20059 24.0889 4.79852 24.4909 4.79852 24.9869V29.4213C4.79852 29.9173 5.20059 30.3193 5.69657 30.3193H22.9485C23.4445 30.3193 23.8466 29.9173 23.8466 29.4213V24.9869C23.8466 24.4909 23.4445 24.0889 22.9485 24.0889Z" fill="#4F4F74"/>
<path d="M23.8476 29.07V29.4213C23.8476 29.5393 23.8244 29.6562 23.7792 29.7652C23.734 29.8742 23.6677 29.9733 23.5842 30.0567C23.5007 30.1401 23.4016 30.2062 23.2925 30.2513C23.1834 30.2964 23.0665 30.3195 22.9485 30.3193H5.69334C5.45516 30.3193 5.22674 30.2247 5.05832 30.0563C4.8899 29.8879 4.79529 29.6595 4.79529 29.4213V24.9869C4.79529 24.7487 4.8899 24.5203 5.05832 24.3519C5.22674 24.1835 5.45516 24.0889 5.69334 24.0889H6.24548V28.1709C6.24548 28.289 6.26874 28.4059 6.31393 28.515C6.35911 28.6241 6.42534 28.7232 6.50883 28.8067C6.59232 28.8902 6.69144 28.9564 6.80053 29.0016C6.90961 29.0468 7.02653 29.07 7.1446 29.07H23.8476Z" fill="#3E436D"/>
<path d="M7.47655 26.4382H6.50009C6.34643 26.4382 6.22186 26.5628 6.22186 26.7165V27.6929C6.22186 27.8466 6.34643 27.9711 6.50009 27.9711H7.47655C7.63021 27.9711 7.75477 27.8466 7.75477 27.6929V26.7165C7.75477 26.5628 7.63021 26.4382 7.47655 26.4382Z" fill="#4ACC97"/>
<path d="M9.47356 26.4382H8.49709C8.34344 26.4382 8.21887 26.5628 8.21887 26.7165V27.6929C8.21887 27.8466 8.34344 27.9711 8.49709 27.9711H9.47356C9.62722 27.9711 9.75178 27.8466 9.75178 27.6929V26.7165C9.75178 26.5628 9.62722 26.4382 9.47356 26.4382Z" fill="#38C487"/>
<path d="M11.4716 26.4382H10.4951C10.3415 26.4382 10.2169 26.5628 10.2169 26.7165V27.6929C10.2169 27.8466 10.3415 27.9711 10.4951 27.9711H11.4716C11.6253 27.9711 11.7498 27.8466 11.7498 27.6929V26.7165C11.7498 26.5628 11.6253 26.4382 11.4716 26.4382Z" fill="#00B564"/>
<path d="M21.7669 24.7957H14.459C14.2324 24.7957 14.0486 24.9794 14.0486 25.206V25.5412C14.0486 25.7678 14.2324 25.9515 14.459 25.9515H21.7669C21.9935 25.9515 22.1773 25.7678 22.1773 25.5412V25.206C22.1773 24.9794 21.9935 24.7957 21.7669 24.7957Z" fill="#32314B"/>
<path d="M21.7669 26.6262H14.459C14.2324 26.6262 14.0486 26.8099 14.0486 27.0366V27.3717C14.0486 27.5984 14.2324 27.7821 14.459 27.7821H21.7669C21.9935 27.7821 22.1773 27.5984 22.1773 27.3717V27.0366C22.1773 26.8099 21.9935 26.6262 21.7669 26.6262Z" fill="#32314B"/>
<path d="M21.7669 28.4565H14.459C14.2324 28.4565 14.0486 28.6403 14.0486 28.8669V29.2021C14.0486 29.4287 14.2324 29.6124 14.459 29.6124H21.7669C21.9935 29.6124 22.1773 29.4287 22.1773 29.2021V28.8669C22.1773 28.6403 21.9935 28.4565 21.7669 28.4565Z" fill="#32314B"/>
<path d="M22.9485 31.168H5.69657C5.20059 31.168 4.79852 31.57 4.79852 32.066V36.5004C4.79852 36.9964 5.20059 37.3984 5.69657 37.3984H22.9485C23.4445 37.3984 23.8466 36.9964 23.8466 36.5004V32.066C23.8466 31.57 23.4445 31.168 22.9485 31.168Z" fill="#4F4F74"/>
<path d="M23.8476 36.1491V36.5004C23.8476 36.6184 23.8244 36.7353 23.7792 36.8443C23.734 36.9533 23.6677 37.0524 23.5842 37.1358C23.5007 37.2192 23.4016 37.2853 23.2925 37.3304C23.1834 37.3755 23.0665 37.3986 22.9485 37.3984H5.69334C5.45516 37.3984 5.22674 37.3038 5.05832 37.1354C4.8899 36.967 4.79529 36.7386 4.79529 36.5004V32.066C4.79529 31.9481 4.81852 31.8313 4.86365 31.7223C4.90878 31.6134 4.97493 31.5144 5.05832 31.431C5.14171 31.3476 5.24071 31.2815 5.34967 31.2363C5.45862 31.1912 5.5754 31.168 5.69334 31.168H6.24548V35.25C6.24548 35.3681 6.26874 35.485 6.31393 35.5941C6.35911 35.7032 6.42534 35.8023 6.50883 35.8858C6.59232 35.9693 6.69144 36.0355 6.80053 36.0807C6.90961 36.1259 7.02653 36.1491 7.1446 36.1491H23.8476Z" fill="#3E436D"/>
<path d="M7.47655 33.5173H6.50009C6.34643 33.5173 6.22186 33.6419 6.22186 33.7956V34.772C6.22186 34.9257 6.34643 35.0502 6.50009 35.0502H7.47655C7.63021 35.0502 7.75477 34.9257 7.75477 34.772V33.7956C7.75477 33.6419 7.63021 33.5173 7.47655 33.5173Z" fill="#7CC8FB"/>
<path d="M9.47356 33.5173H8.49709C8.34344 33.5173 8.21887 33.6419 8.21887 33.7956V34.772C8.21887 34.9257 8.34344 35.0502 8.49709 35.0502H9.47356C9.62722 35.0502 9.75178 34.9257 9.75178 34.772V33.7956C9.75178 33.6419 9.62722 33.5173 9.47356 33.5173Z" fill="#41C0E3"/>
<path d="M11.4716 33.5173H10.4951C10.3415 33.5173 10.2169 33.6419 10.2169 33.7956V34.772C10.2169 34.9257 10.3415 35.0502 10.4951 35.0502H11.4716C11.6253 35.0502 11.7498 34.9257 11.7498 34.772V33.7956C11.7498 33.6419 11.6253 33.5173 11.4716 33.5173Z" fill="#3586CB"/>
<path d="M21.7669 31.8748H14.459C14.2324 31.8748 14.0486 32.0585 14.0486 32.2851V32.6203C14.0486 32.8469 14.2324 33.0306 14.459 33.0306H21.7669C21.9935 33.0306 22.1773 32.8469 22.1773 32.6203V32.2851C22.1773 32.0585 21.9935 31.8748 21.7669 31.8748Z" fill="#32314B"/>
<path d="M21.7669 33.7053H14.459C14.2324 33.7053 14.0486 33.889 14.0486 34.1157V34.4508C14.0486 34.6775 14.2324 34.8612 14.459 34.8612H21.7669C21.9935 34.8612 22.1773 34.6775 22.1773 34.4508V34.1157C22.1773 33.889 21.9935 33.7053 21.7669 33.7053Z" fill="#32314B"/>
<path d="M21.7669 35.5356H14.459C14.2324 35.5356 14.0486 35.7194 14.0486 35.946V36.2812C14.0486 36.5078 14.2324 36.6915 14.459 36.6915H21.7669C21.9935 36.6915 22.1773 36.5078 22.1773 36.2812V35.946C22.1773 35.7194 21.9935 35.5356 21.7669 35.5356Z" fill="#32314B"/>
<path d="M49.9791 21.4635C49.385 20.4022 47.7694 20.1132 45.3084 20.6278C43.0837 21.0929 40.3938 22.1682 37.7351 23.6571C35.0765 25.146 32.7518 26.8798 31.191 28.5276C29.4658 30.3538 28.8675 31.8835 29.4615 32.9448C29.8643 33.6645 30.7355 34.0298 32.0224 34.0298C32.7319 34.0187 33.4385 33.9355 34.1311 33.7816C36.3558 33.3154 39.0457 32.2401 41.7055 30.7512C44.3652 29.2624 46.6888 27.534 48.2485 25.8807C49.9748 24.0524 50.5731 22.5249 49.9791 21.4635ZM41.1705 29.793C38.6063 31.2282 36.0271 32.2637 33.9088 32.7052C31.7174 33.1639 30.6711 32.8524 30.4219 32.4088C30.1726 31.9651 30.4552 30.9102 31.9924 29.2817C33.478 27.708 35.7092 26.0505 38.2733 24.6153C42.2479 22.3927 45.5608 21.4786 47.4364 21.4786C48.2818 21.4786 48.8329 21.6644 49.022 22.0007C49.6289 23.0813 46.9305 26.5682 41.1683 29.793H41.1705Z" fill="#366FCA"/>
<path d="M47.4182 34.0298C46.7083 34.0187 46.0014 33.9355 45.3084 33.7816C43.0837 33.3154 40.3938 32.2401 37.7351 30.7512C35.0765 29.2624 32.7518 27.534 31.191 25.8807C29.4658 24.0546 28.8675 22.5249 29.4615 21.4635C30.0556 20.4022 31.6701 20.1132 34.1311 20.6278C36.3558 21.0929 39.0457 22.1682 41.7055 23.6571C44.3652 25.146 46.6888 26.8798 48.2485 28.5276C49.9748 30.3538 50.5731 31.8835 49.9791 32.9448C49.5763 33.6645 48.704 34.0298 47.4182 34.0298ZM32.0117 21.484C31.1663 21.484 30.6152 21.6698 30.4251 22.006C29.8203 23.0867 32.5144 26.5736 38.2766 29.7984C40.8418 31.2336 43.421 32.2691 45.5393 32.7106C47.7307 33.1693 48.777 32.8578 49.0252 32.4141C49.2733 31.9705 48.9919 30.9156 47.4547 29.2871C45.969 27.7133 43.739 26.0558 41.1737 24.6207C37.197 22.3927 33.8808 21.484 32.0117 21.484Z" fill="#41C0E3"/>
<path d="M39.7203 38.9604C38.5032 38.9604 37.4644 37.6917 36.7125 35.293C36.0314 33.1242 35.6576 30.2517 35.6576 27.2041C35.6576 24.1566 36.0314 21.2841 36.7125 19.1153C37.4644 16.7166 38.5053 15.449 39.7203 15.449C40.9352 15.449 41.9761 16.7166 42.7281 19.1153C43.4081 21.2841 43.783 24.1566 43.783 27.2041C43.783 30.2517 43.4081 33.1242 42.7281 35.293C41.9772 37.6917 40.9363 38.9604 39.7203 38.9604ZM39.7203 16.5468C38.4817 16.5468 36.7533 20.602 36.7533 27.2041C36.7533 33.8063 38.4817 37.8615 39.7203 37.8615C40.9589 37.8615 42.6862 33.8074 42.6862 27.2041C42.6862 20.6009 40.9589 16.5425 39.7203 16.5425V16.5468Z" fill="#3586CB"/>
<path d="M36.0132 32.1187H36.0046C35.6465 32.239 35.297 32.3464 34.9561 32.4409C35.0163 32.8126 35.084 33.1746 35.157 33.5248C35.4943 33.4324 35.8395 33.3282 36.1926 33.2122L36.2108 33.2068C36.1388 32.8706 36.0733 32.5032 36.0132 32.1187ZM34.5898 25.64C34.5705 26.0955 34.5594 26.5567 34.5565 27.0236C34.9121 26.7551 35.2838 26.4865 35.6683 26.2255C35.6683 26.1009 35.6748 25.9773 35.6802 25.8538C35.6855 25.7303 35.6898 25.6067 35.6952 25.4854C35.6952 25.4145 35.7016 25.3436 35.7059 25.2705L35.7156 25.1126C35.7156 25.0288 35.7253 24.9461 35.7306 24.8623C35.3418 25.119 34.9572 25.3779 34.5898 25.64Z" fill="#2C61AF"/>
<path d="M35.7156 29.2944L35.7059 29.1354C35.7059 29.0656 35.6984 28.9936 35.6952 28.9206C35.6898 28.7992 35.6844 28.6767 35.6802 28.5521L35.6737 28.3684V28.1836C35.2813 27.9158 34.9107 27.6498 34.5619 27.3855C34.5619 27.8517 34.573 28.3122 34.5952 28.7669C34.9626 29.028 35.3471 29.2869 35.736 29.5415C35.7253 29.4609 35.7199 29.3771 35.7156 29.2944ZM36.1926 21.1883C35.8402 21.0723 35.495 20.9681 35.157 20.8757C35.084 21.2259 35.0163 21.5879 34.9561 21.9585C35.2913 22.052 35.6404 22.1583 36.0046 22.2808H36.0142C36.0733 21.9005 36.1399 21.5364 36.2108 21.1916L36.1926 21.1883Z" fill="#39AEC9"/>
<path d="M36.0046 22.281H36.0142C36.0733 21.9007 36.1399 21.5366 36.2108 21.1917L36.1926 21.1853C36.1238 21.5419 36.0604 21.9072 36.0046 22.281ZM36.0132 32.123H36.0046C36.0604 32.4979 36.1238 32.8631 36.1926 33.2176L36.2108 33.2123C36.1389 32.8707 36.0733 32.5033 36.0132 32.1187V32.123Z" fill="#3586CB"/>
<path d="M39.7182 29.0807C40.7546 29.0807 41.5948 28.2405 41.5948 27.2041C41.5948 26.1676 40.7546 25.3274 39.7182 25.3274C38.6817 25.3274 37.8415 26.1676 37.8415 27.2041C37.8415 28.2405 38.6817 29.0807 39.7182 29.0807Z" fill="#FC4581"/>
<path d="M40.0598 29.0497C39.803 29.0979 39.5389 29.092 39.2845 29.0322C39.0301 28.9725 38.791 28.8603 38.5825 28.7028C38.374 28.5454 38.2007 28.3461 38.0736 28.1177C37.9466 27.8894 37.8686 27.637 37.8447 27.3768C37.8208 27.1166 37.8515 26.8543 37.9349 26.6066C38.0182 26.359 38.1524 26.1315 38.3288 25.9387C38.5051 25.7459 38.7198 25.592 38.9591 25.4869C39.1983 25.3819 39.4569 25.328 39.7182 25.3286C39.8327 25.3288 39.947 25.3388 40.0598 25.3587C39.6284 25.4383 39.2385 25.6665 38.9579 26.0036C38.6773 26.3408 38.5236 26.7656 38.5236 27.2042C38.5236 27.6429 38.6773 28.0676 38.9579 28.4048C39.2385 28.7419 39.6284 28.9701 40.0598 29.0497Z" fill="#FA3268"/>
<path d="M40.4422 27.4532C40.842 27.4532 41.1662 27.129 41.1662 26.7292C41.1662 26.3293 40.842 26.0051 40.4422 26.0051C40.0423 26.0051 39.7181 26.3293 39.7181 26.7292C39.7181 27.129 40.0423 27.4532 40.4422 27.4532Z" fill="#FC72A4"/>
<path d="M46.8166 34.5721C47.5066 34.5721 48.0659 34.0128 48.0659 33.3228C48.0659 32.6328 47.5066 32.0735 46.8166 32.0735C46.1266 32.0735 45.5673 32.6328 45.5673 33.3228C45.5673 34.0128 46.1266 34.5721 46.8166 34.5721Z" fill="#E88032"/>
<path d="M47.0443 34.5506C46.9696 34.5649 46.8937 34.5721 46.8177 34.5721C46.4863 34.5721 46.1686 34.4405 45.9343 34.2062C45.7 33.9719 45.5684 33.6541 45.5684 33.3228C45.5684 32.9915 45.7 32.6737 45.9343 32.4394C46.1686 32.2051 46.4863 32.0735 46.8177 32.0735C46.8937 32.0737 46.9695 32.0805 47.0443 32.0939C46.7574 32.1471 46.4982 32.2991 46.3116 32.5235C46.125 32.7478 46.0228 33.0304 46.0228 33.3223C46.0228 33.6141 46.125 33.8967 46.3116 34.1211C46.4982 34.3454 46.7574 34.4974 47.0443 34.5506Z" fill="#CC6C2B"/>
<path d="M47.2989 33.4893C47.5653 33.4893 47.7812 33.2734 47.7812 33.007C47.7812 32.7406 47.5653 32.5247 47.2989 32.5247C47.0325 32.5247 46.8166 32.7406 46.8166 33.007C46.8166 33.2734 47.0325 33.4893 47.2989 33.4893Z" fill="#F29E64"/>
<path d="M32.5338 34.5721C33.2238 34.5721 33.7831 34.0128 33.7831 33.3228C33.7831 32.6328 33.2238 32.0735 32.5338 32.0735C31.8438 32.0735 31.2845 32.6328 31.2845 33.3228C31.2845 34.0128 31.8438 34.5721 32.5338 34.5721Z" fill="#AA60FA"/>
<path d="M32.7637 34.5506C32.689 34.5649 32.6131 34.5721 32.537 34.5721C32.2057 34.5721 31.8879 34.4405 31.6536 34.2062C31.4193 33.9719 31.2877 33.6541 31.2877 33.3228C31.2877 32.9915 31.4193 32.6737 31.6536 32.4394C31.8879 32.2051 32.2057 32.0735 32.537 32.0735C32.613 32.0737 32.6889 32.0805 32.7637 32.0939C32.4768 32.1471 32.2175 32.2991 32.0309 32.5235C31.8443 32.7478 31.7422 33.0304 31.7422 33.3223C31.7422 33.6141 31.8443 33.8967 32.0309 34.1211C32.2175 34.3454 32.4768 34.4974 32.7637 34.5506Z" fill="#934CF5"/>
<path d="M33.0161 33.4893C33.2825 33.4893 33.4985 33.2734 33.4985 33.007C33.4985 32.7406 33.2825 32.5247 33.0161 32.5247C32.7498 32.5247 32.5338 32.7406 32.5338 33.007C32.5338 33.2734 32.7498 33.4893 33.0161 33.4893Z" fill="#CD88F8"/>
<path d="M46.8166 22.2755C47.5066 22.2755 48.0659 21.7162 48.0659 21.0262C48.0659 20.3362 47.5066 19.7769 46.8166 19.7769C46.1266 19.7769 45.5673 20.3362 45.5673 21.0262C45.5673 21.7162 46.1266 22.2755 46.8166 22.2755Z" fill="#38C487"/>
<path d="M47.0443 22.2551C46.9695 22.2685 46.8937 22.2753 46.8177 22.2755C46.4863 22.2755 46.1686 22.1439 45.9343 21.9096C45.7 21.6753 45.5684 21.3575 45.5684 21.0262C45.5684 20.6948 45.7 20.3771 45.9343 20.1428C46.1686 19.9085 46.4863 19.7769 46.8177 19.7769C46.8937 19.7771 46.9695 19.7839 47.0443 19.7973C46.7578 19.8511 46.499 20.0034 46.3128 20.2278C46.1266 20.4522 46.0247 20.7346 46.0247 21.0262C46.0247 21.3178 46.1266 21.6002 46.3128 21.8246C46.499 22.049 46.7578 22.2013 47.0443 22.2551Z" fill="#00B564"/>
<path d="M47.2989 21.1927C47.5653 21.1927 47.7812 20.9767 47.7812 20.7104C47.7812 20.444 47.5653 20.228 47.2989 20.228C47.0325 20.228 46.8166 20.444 46.8166 20.7104C46.8166 20.9767 47.0325 21.1927 47.2989 21.1927Z" fill="#4ACC97"/>
<path d="M32.5338 22.2755C33.2238 22.2755 33.7831 21.7162 33.7831 21.0262C33.7831 20.3362 33.2238 19.7769 32.5338 19.7769C31.8438 19.7769 31.2845 20.3362 31.2845 21.0262C31.2845 21.7162 31.8438 22.2755 32.5338 22.2755Z" fill="#DB1B1B"/>
<path d="M32.7637 22.2551C32.6889 22.2685 32.613 22.2753 32.537 22.2755C32.2057 22.2755 31.8879 22.1439 31.6536 21.9096C31.4193 21.6753 31.2877 21.3575 31.2877 21.0262C31.2877 20.6948 31.4193 20.3771 31.6536 20.1428C31.8879 19.9085 32.2057 19.7769 32.537 19.7769C32.613 19.7771 32.6889 19.7839 32.7637 19.7973C32.4771 19.8511 32.2184 20.0034 32.0322 20.2278C31.846 20.4522 31.7441 20.7346 31.7441 21.0262C31.7441 21.3178 31.846 21.6002 32.0322 21.8246C32.2184 22.049 32.4771 22.2013 32.7637 22.2551Z" fill="#BA1919"/>
<path d="M33.0161 21.1927C33.2825 21.1927 33.4985 20.9767 33.4985 20.7104C33.4985 20.444 33.2825 20.228 33.0161 20.228C32.7498 20.228 32.5338 20.444 32.5338 20.7104C32.5338 20.9767 32.7498 21.1927 33.0161 21.1927Z" fill="#E54A4A"/>
<path d="M39.7181 14.8581C39.6042 14.8581 39.4949 14.8128 39.4143 14.7322C39.3337 14.6516 39.2885 14.5423 39.2885 14.4284V11.658H14.474V14.4284C14.474 14.5423 14.4287 14.6516 14.3481 14.7322C14.2676 14.8128 14.1583 14.8581 14.0443 14.8581C13.9304 14.8581 13.8211 14.8128 13.7405 14.7322C13.6599 14.6516 13.6146 14.5423 13.6146 14.4284V11.2283C13.6146 11.1143 13.6599 11.005 13.7405 10.9244C13.8211 10.8439 13.9304 10.7986 14.0443 10.7986H39.7181C39.8321 10.7986 39.9414 10.8439 40.022 10.9244C40.1026 11.005 40.1478 11.1143 40.1478 11.2283V14.4284C40.1478 14.5423 40.1026 14.6516 40.022 14.7322C39.9414 14.8128 39.8321 14.8581 39.7181 14.8581ZM39.7181 44.2003H14.0443C13.9304 44.2003 13.8211 44.1551 13.7405 44.0745C13.6599 43.9939 13.6146 43.8846 13.6146 43.7707V40.5706C13.6146 40.4566 13.6599 40.3473 13.7405 40.2667C13.8211 40.1861 13.9304 40.1409 14.0443 40.1409C14.1583 40.1409 14.2676 40.1861 14.3481 40.2667C14.4287 40.3473 14.474 40.4566 14.474 40.5706V43.341H39.2885V40.5706C39.2885 40.4566 39.3337 40.3473 39.4143 40.2667C39.4949 40.1861 39.6042 40.1409 39.7181 40.1409C39.8321 40.1409 39.9414 40.1861 40.022 40.2667C40.1026 40.3473 40.1478 40.4566 40.1478 40.5706V43.7707C40.1478 43.8846 40.1026 43.9939 40.022 44.0745C39.9414 44.1551 39.8321 44.2003 39.7181 44.2003Z" fill="white"/>
</g>
<defs>
<clipPath id="clip0_5_71">
<rect width="55" height="55" fill="white" transform="translate(0 -0.000488281)"/>
</clipPath>
</defs>
</svg>
