<svg width="103" height="107" viewBox="0 0 103 107" fill="none" xmlns="http://www.w3.org/2000/svg">
<g clip-path="url(#clip0_5_59)" filter="url(#filter0_dd_5_59)">
<path d="M49.4349 44.9383C50.3231 45.5801 51.4152 45.9586 52.5961 45.9586H62.6975V50.8566L69.1007 45.9586H71.8631C74.841 45.9586 77.255 43.552 77.255 40.5832V21.3749C77.2551 18.4061 74.8411 15.9995 71.8631 15.9995H52.596C49.6181 15.9995 47.2041 18.4061 47.2041 21.3749V44.9383H49.4349Z" fill="#F7F3F1"/>
<path d="M71.8632 15.9995H67.2449C70.2228 15.9995 72.6369 18.4062 72.6369 21.3749V40.5832C72.6369 43.552 70.2228 45.9586 67.245 45.9586H64.4826L62.6976 47.324V50.8566L69.1008 45.9586H71.8632C74.8411 45.9586 77.2551 43.552 77.2551 40.5832V21.3749C77.2552 18.4062 74.8411 15.9995 71.8632 15.9995Z" fill="#EFE7E3"/>
<path d="M58.0747 38.0796L58.6305 38.5295C59.5116 39.2427 60.6109 39.6319 61.7445 39.6319H69.6339C70.3818 39.6319 70.984 39.008 70.9484 38.2522C70.9151 37.5444 70.9499 31.0984 70.9499 30.3716C70.9499 29.6449 70.3608 29.0556 69.6339 29.0556L64.2841 29.0395L64.9391 27.4882C65.2749 26.6929 65.4227 25.8309 65.3711 24.9692C65.3195 24.1075 65.0698 23.2693 64.6415 22.5198C64.1709 21.7923 63.0279 22.06 63.0057 22.9543C63.0057 24.3454 62.4978 25.6887 61.5774 26.7318L58.166 30.5919H56.9224V38.0795L58.0747 38.0796Z" fill="#FFD36C"/>
<path d="M57.5422 39.2667H53.9402C53.8258 39.2667 53.7162 39.2213 53.6353 39.1404C53.5545 39.0596 53.509 38.9499 53.509 38.8355V29.6533C53.509 29.539 53.5545 29.4293 53.6353 29.3484C53.7162 29.2676 53.8258 29.2222 53.9402 29.2222H57.5422C57.5988 29.2222 57.6549 29.2333 57.7072 29.255C57.7595 29.2767 57.807 29.3084 57.847 29.3484C57.8871 29.3885 57.9188 29.436 57.9405 29.4883C57.9622 29.5406 57.9733 29.5967 57.9733 29.6533V38.8355C57.9733 38.9499 57.9278 39.0595 57.847 39.1404C57.7661 39.2212 57.6565 39.2666 57.5422 39.2667Z" fill="#8EE6F3"/>
<path d="M49.4426 54.5645V35.1782C49.4426 32.8371 47.5389 30.9392 45.1905 30.9392H29.9968C27.6485 30.9392 25.7448 32.8371 25.7448 35.1782V50.3255C25.7448 52.6666 27.6484 54.5645 29.9968 54.5645H38.3437V58.4632L43.3931 54.5645H49.4426Z" fill="#72D1FB"/>
<path d="M45.1907 30.9392H39.1696C41.5178 30.9392 43.4216 32.8371 43.4216 35.1782V54.5645H49.4427V35.1782C49.4426 32.8371 47.539 30.9392 45.1907 30.9392Z" fill="#62A6FD"/>
<path d="M43.1655 43.9973H40.1097L40.4445 41.9726H43.1655C44.2362 41.9726 44.2362 40.3127 43.1655 40.3127H40.7189L41.176 37.5484C41.3506 36.4922 39.713 36.2213 39.5383 37.2777L39.0365 40.3127H37.0343L37.4913 37.5484C37.6659 36.4922 36.0286 36.2212 35.8536 37.2777L35.3518 40.3127H32.0216C30.951 40.3127 30.951 41.9726 32.0216 41.9726H35.0774L34.7426 43.9973H32.0216C30.951 43.9973 30.951 45.6573 32.0216 45.6573H34.4682L34.0112 48.4216C33.8383 49.4666 35.4739 49.7501 35.6489 48.6923L36.1506 45.6573H38.1529L37.6958 48.4216C37.523 49.4666 39.1586 49.7501 39.3335 48.6923L39.8353 45.6573H43.1655C44.2362 45.6573 44.2362 43.9973 43.1655 43.9973ZM38.4273 43.9973H36.4252L36.7599 41.9726H38.7622L38.4273 43.9973Z" fill="#F7F3F1"/>
<path d="M57.6677 51.467H46.8855C45.219 51.467 43.868 52.8138 43.868 54.4752V65.2245C43.868 66.8859 45.219 68.2326 46.8855 68.2326H52.8088V70.9995L56.3922 68.2327H57.6677C59.3342 68.2327 60.6852 66.886 60.6852 65.2246V54.4753C60.6852 52.8139 59.3342 51.467 57.6677 51.467Z" fill="#FA9084"/>
<path d="M57.6675 51.467H53.0196C54.6861 51.467 56.0371 52.8138 56.0371 54.4752V65.2246C56.0371 66.886 54.6861 68.2327 53.0196 68.2327H52.8086V70.9995L56.392 68.2327H57.6675C59.334 68.2327 60.685 66.886 60.685 65.2246V54.4752C60.685 52.8139 59.334 51.467 57.6675 51.467Z" fill="#FF6CB5"/>
<path d="M52.2764 63.5024C54.871 62.127 56.2152 60.9566 56.2152 59.1435C56.2152 56.6426 53.1516 56.0174 52.2764 57.8931C51.276 55.9549 48.3375 56.6427 48.3375 59.1435C48.3375 60.9566 49.6818 62.1269 52.2764 63.5024Z" fill="#F7F3F1"/>
</g>
<defs>
<filter id="filter0_dd_5_59" x="-1.60948" y="0.146021" width="106.219" height="106.219" filterUnits="userSpaceOnUse" color-interpolation-filters="sRGB">
<feFlood flood-opacity="0" result="BackgroundImageFix"/>
<feColorMatrix in="SourceAlpha" type="matrix" values="0 0 0 0 0 0 0 0 0 0 0 0 0 0 0 0 0 0 127 0" result="hardAlpha"/>
<feMorphology radius="3.6585" operator="erode" in="SourceAlpha" result="effect1_dropShadow_5_59"/>
<feOffset dy="9.75599"/>
<feGaussianBlur stdDeviation="14.634"/>
<feColorMatrix type="matrix" values="0 0 0 0 0.0627451 0 0 0 0 0.0941176 0 0 0 0 0.156863 0 0 0 0.1 0"/>
<feBlend mode="normal" in2="BackgroundImageFix" result="effect1_dropShadow_5_59"/>
<feColorMatrix in="SourceAlpha" type="matrix" values="0 0 0 0 0 0 0 0 0 0 0 0 0 0 0 0 0 0 127 0" result="hardAlpha"/>
<feMorphology radius="3.6585" operator="erode" in="SourceAlpha" result="effect2_dropShadow_5_59"/>
<feOffset dy="9.75599"/>
<feGaussianBlur stdDeviation="14.634"/>
<feColorMatrix type="matrix" values="0 0 0 0 0.0627451 0 0 0 0 0.0941176 0 0 0 0 0.156863 0 0 0 0.05 0"/>
<feBlend mode="normal" in2="effect1_dropShadow_5_59" result="effect2_dropShadow_5_59"/>
<feBlend mode="normal" in="SourceGraphic" in2="effect2_dropShadow_5_59" result="shape"/>
</filter>
<clipPath id="clip0_5_59">
<rect width="55" height="55" fill="white" transform="translate(24 15.9995)"/>
</clipPath>
</defs>
</svg>
