<svg width="55" height="55" viewBox="0 0 55 55" fill="none" xmlns="http://www.w3.org/2000/svg">
<path d="M54.8118 24.7154L41.7626 47.3285C41.6397 47.5417 41.4629 47.7186 41.2499 47.8416C41.0368 47.9646 40.7951 48.0292 40.5491 48.0289H14.4498C14.2039 48.029 13.9623 47.9644 13.7494 47.8414C13.5365 47.7185 13.3598 47.5415 13.237 47.3285L12.199 45.5288C14.1401 45.2907 16.0558 44.8783 17.9229 44.2967H38.8874C39.0829 44.2967 39.2638 44.1923 39.3616 44.0223L50.7499 24.2881C50.7979 24.2049 50.8232 24.1105 50.8232 24.0144C50.8232 23.9183 50.7979 23.8239 50.7499 23.7406L40.1434 5.36223C39.714 3.52714 39.1259 1.73283 38.386 -0.000488281L40.5492 -0.000488281C41.0502 -0.000488281 41.5121 0.267207 41.7627 0.701084L54.8118 23.3144C54.9349 23.5273 54.9997 23.7689 54.9997 24.0149C54.9997 24.2609 54.9349 24.5024 54.8118 24.7154Z" fill="#5B5C6C"/>
<path d="M41.01 12.8944C41.01 27.6472 31.2992 40.1317 17.9231 44.2967C16.0559 44.8783 14.1402 45.2906 12.199 45.5288L0.187979 24.7154C0.064897 24.5025 9.15527e-05 24.2609 9.15527e-05 24.015C9.15527e-05 23.7691 0.064897 23.5276 0.187979 23.3147L13.2373 0.701084C13.36 0.487988 13.5367 0.310966 13.7496 0.187813C13.9625 0.0646606 14.204 -0.00028281 14.45 -0.000488281L38.3861 -0.000488281C39.126 1.73285 39.714 3.52716 40.1435 5.36223C40.71 7.78137 41.01 10.3029 41.01 12.8944Z" fill="#707384"/>
<path d="M50.7501 24.2882L39.3615 44.0225C39.3136 44.1058 39.2445 44.1751 39.1613 44.2233C39.078 44.2714 38.9835 44.2968 38.8874 44.2968H17.9229C31.2991 40.1318 41.0098 27.6473 41.0098 12.8944C41.0098 10.3029 40.7098 7.78134 40.1432 5.3623L50.7499 23.7407C50.7979 23.8239 50.8232 23.9183 50.8232 24.0145C50.8232 24.1106 50.7979 24.205 50.7499 24.2882H50.7501Z" fill="#464655"/>
<path d="M41.01 12.8944C41.01 27.6472 31.2991 40.1316 17.9231 44.2967H16.1115C16.0153 44.2967 15.9208 44.2713 15.8376 44.2231C15.7543 44.1749 15.6853 44.1056 15.6373 44.0222L4.25019 24.2882C4.20216 24.2049 4.17688 24.1105 4.17688 24.0144C4.17688 23.9183 4.20216 23.8239 4.25019 23.7407L15.6373 4.00727C15.6853 3.92394 15.7544 3.85473 15.8377 3.80657C15.9209 3.75841 16.0153 3.73301 16.1115 3.73291H38.8875C39.083 3.73291 39.2639 3.83743 39.3617 4.00737L40.1434 5.36229C40.7099 7.78143 41.01 10.3028 41.01 12.8944Z" fill="#5B5C6C"/>
<path d="M42.9711 54.1044H12.0282C10.9283 54.1044 10.0366 53.2128 10.0366 52.1128V40.1483C10.0366 39.0486 10.9283 38.1567 12.0282 38.1567H42.9711C44.0714 38.1567 44.963 39.0486 44.963 40.1483V52.1125C44.963 53.2127 44.0714 54.1044 42.9711 54.1044Z" fill="#C3B4FA"/>
<path d="M42.9715 38.1567H39.7863C40.886 38.1567 41.7773 39.0486 41.7773 40.1488V52.1119C41.7773 53.2121 40.886 54.1043 39.7863 54.1043H42.9715C44.0714 54.1043 44.9631 53.2121 44.9631 52.1119V40.1492C44.9631 39.0486 44.0714 38.1568 42.9715 38.1568V38.1567Z" fill="#A09BFF"/>
<path d="M13.8129 50.3274V42.1394C13.8129 42.0051 13.8632 41.8873 13.9639 41.7865C14.0651 41.6859 14.1909 41.6355 14.342 41.6355H16.835C18.8244 41.6355 19.8193 42.5129 19.8193 44.2682C19.8193 44.9572 19.6703 45.5115 19.3724 45.9311C19.0744 46.3511 18.6733 46.6364 18.1698 46.788L19.8193 49.8491C19.8611 49.8994 19.8822 49.9665 19.8822 50.0505C19.8822 50.2607 19.7731 50.4558 19.5549 50.6363C19.3363 50.8167 19.1054 50.907 18.862 50.907C18.6186 50.907 18.4299 50.7768 18.2956 50.5167L16.5077 47.0397H15.4498V50.3274C15.4498 50.4873 15.3701 50.6132 15.2106 50.7056C15.0511 50.7983 14.8581 50.8439 14.6315 50.8439C14.4129 50.8439 14.2224 50.7983 14.0583 50.7055C13.895 50.6132 13.8129 50.4874 13.8129 50.3273V50.3274ZM15.4498 45.7548H16.835C17.7333 45.7548 18.1824 45.3096 18.1824 44.4192C18.1824 43.5209 17.7333 43.0714 16.835 43.0714H15.4498V45.7548ZM20.4863 48.3749V47.304C20.4863 46.6159 20.7549 46.0234 21.2925 45.5278C21.8297 45.0326 22.4801 44.7847 23.2442 44.7847C23.9575 44.7847 24.5681 45.0105 25.0762 45.462C25.5839 45.9131 25.8378 46.4803 25.8378 47.164C25.8378 47.4136 25.8063 47.6192 25.7434 47.7812C25.6805 47.9435 25.5839 48.0577 25.4539 48.1244C25.3238 48.1911 25.2038 48.2327 25.0951 48.2495C24.986 48.2658 24.8434 48.2742 24.6671 48.2742H22.1108V48.4634C22.1108 48.8244 22.2451 49.1164 22.5136 49.3388C22.7822 49.5612 23.1392 49.6724 23.5841 49.6724C23.903 49.6724 24.2176 49.5927 24.5282 49.4333C24.8386 49.2737 25.0402 49.194 25.1329 49.194C25.309 49.194 25.456 49.2759 25.5734 49.4395C25.6909 49.6032 25.7497 49.7605 25.7497 49.912C25.7497 50.147 25.5378 50.3803 25.114 50.611C24.6897 50.8423 24.1632 50.9572 23.5338 50.9572C22.6353 50.9572 21.9031 50.7202 21.3366 50.2456C20.7697 49.7714 20.4863 49.1478 20.4863 48.3749ZM22.1108 47.3166H23.9491C24.0834 47.3166 24.1779 47.2952 24.2327 47.2521C24.2869 47.2089 24.3146 47.1244 24.3146 46.999C24.3146 46.7246 24.2077 46.501 23.9936 46.3284C23.7795 46.1559 23.5169 46.0696 23.2064 46.0696C22.9127 46.0696 22.6567 46.1544 22.4385 46.3226C22.2199 46.4913 22.1108 46.7128 22.1108 46.9873V47.3166ZM26.455 49.2301C26.455 48.5688 26.7068 48.1039 27.2104 47.8341C27.7139 47.5651 28.4399 47.4304 29.3886 47.4304H29.9052V47.2617C29.9052 46.9424 29.8145 46.6637 29.6341 46.4262C29.4536 46.1884 29.1746 46.0696 28.7969 46.0696C28.4192 46.0696 28.0958 46.1413 27.8272 46.284C27.5587 46.4266 27.4035 46.498 27.3615 46.498C27.1936 46.498 27.0593 46.4142 26.9586 46.2458C26.8579 46.0779 26.8076 45.8933 26.8076 45.6919C26.8076 45.448 27.0232 45.2362 27.4559 45.0554C27.888 44.8749 28.3434 44.7847 28.8222 44.7847C29.7369 44.7847 30.4166 45.018 30.8619 45.4838C31.3066 45.95 31.529 46.5358 31.529 47.2412V50.3274C31.529 50.4705 31.4536 50.5922 31.3024 50.6929C31.1513 50.7935 30.9626 50.8439 30.7356 50.8439C30.5258 50.8439 30.3516 50.7902 30.2132 50.6825C30.0746 50.5746 30.0054 50.4445 30.0054 50.2922V49.9015C29.4264 50.6057 28.7881 50.9577 28.0916 50.9577C27.6132 50.9577 27.2204 50.8104 26.9141 50.5162C26.6078 50.2216 26.455 49.7932 26.455 49.2301ZM28.079 49.0271C28.079 49.2427 28.1398 49.4038 28.2615 49.5112C28.3832 49.6191 28.5451 49.6724 28.7466 49.6724C29.0151 49.6724 29.2753 49.5531 29.5271 49.314C29.7789 49.0753 29.9052 48.8121 29.9052 48.5251V48.2743H29.7159C29.204 48.2743 28.8033 48.3241 28.5137 48.4236C28.2237 48.5235 28.079 48.7244 28.079 49.027V49.0271ZM32.5366 48.3749V47.3674C32.5366 46.5945 32.7633 45.9709 33.2164 45.4963C33.6696 45.0222 34.3497 44.7847 35.2561 44.7847C35.8268 44.7847 36.3056 44.8854 36.6916 45.0873C37.0777 45.2887 37.2707 45.5153 37.2707 45.7675C37.2707 45.9437 37.2077 46.1198 37.0818 46.2961C36.9559 46.4728 36.8049 46.5609 36.6286 46.5609C36.5784 46.5609 36.4294 46.5043 36.1818 46.391C35.9343 46.2773 35.6673 46.221 35.382 46.221C34.568 46.221 34.1609 46.6042 34.1609 47.3708V48.3712C34.1609 49.1382 34.5721 49.5213 35.3946 49.5213C35.6799 49.5213 35.9442 49.4605 36.1881 49.3387C36.4315 49.2171 36.5866 49.1559 36.6539 49.1559C36.8553 49.1559 37.021 49.2402 37.1516 49.408C37.2815 49.5759 37.3466 49.7479 37.3466 49.9246C37.3466 50.1848 37.1427 50.4223 36.7357 50.6363C36.3286 50.8503 35.8398 50.9572 35.2687 50.9572C34.354 50.9572 33.6699 50.7223 33.2164 50.2519C32.7632 49.7819 32.5366 49.1562 32.5366 48.3749ZM38.1901 48.8273V42.7886C38.1901 42.6476 38.2736 42.5292 38.4418 42.4335C38.6093 42.3384 38.7944 42.2905 38.9958 42.2905C39.2138 42.2905 39.4048 42.3371 39.5686 42.4298C39.7322 42.5229 39.814 42.638 39.814 42.7751V44.8602H41.2999C41.4258 44.8602 41.5265 44.9244 41.6019 45.0519C41.6774 45.1795 41.7153 45.3297 41.7153 45.5027C41.7153 45.676 41.6775 45.8261 41.6019 45.9538C41.5264 46.0814 41.4258 46.1451 41.2999 46.1451H39.814V48.7723C39.814 49.004 39.8664 49.168 39.9718 49.2641C40.0762 49.3602 40.2592 49.408 40.5193 49.408H41.0103C41.2285 49.408 41.3985 49.4782 41.5205 49.6187C41.6419 49.7593 41.7027 49.9262 41.7027 50.1197C41.7027 50.3216 41.6418 50.4928 41.5206 50.6333C41.3985 50.774 41.2284 50.8439 41.0104 50.8439H40.5195C38.9663 50.8439 38.1901 50.1718 38.1901 48.8273Z" fill="#8080E5"/>
<path d="M29.3155 21.4752C29.3155 20.4723 28.5023 19.6587 27.4998 19.6587C26.497 19.6587 25.6842 20.4723 25.6842 21.4752C25.6842 22.4785 26.497 23.2917 27.4998 23.2917C28.5023 23.2917 29.3155 22.4785 29.3155 21.4752Z" fill="#A0DCF0"/>
<path d="M32.7255 33.9776C31.4112 33.9776 29.8745 33.344 28.2402 32.1044C26.017 30.4193 23.801 27.7727 22.0005 24.652C20.1994 21.5314 19.0165 18.2877 18.6691 15.519C18.2907 12.5015 18.9557 10.3347 20.5422 9.41832C22.1284 8.5018 24.3364 9.00915 26.7593 10.8459C28.9825 12.5314 31.1985 15.178 32.999 18.2987C34.8 21.4193 35.9829 24.6626 36.3303 27.4311C36.7092 30.4491 36.0437 32.616 34.4577 33.532C33.9415 33.8304 33.359 33.9776 32.7255 33.9776ZM22.2895 10.6574C21.9463 10.6574 21.6421 10.7305 21.3848 10.8789C20.437 11.4261 20.0568 13.0408 20.3412 15.3093C20.6614 17.8597 21.7689 20.8784 23.4599 23.8086C25.1509 26.7392 27.2104 29.2078 29.2581 30.7604C31.0792 32.141 32.6671 32.6189 33.6146 32.0717C34.5625 31.5241 34.9427 29.9095 34.6582 27.6414C34.3381 25.0905 33.2306 22.0723 31.5395 19.1416C29.8485 16.2115 27.7894 13.7425 25.7413 12.1898C24.4145 11.184 23.2116 10.6574 22.2895 10.6574Z" fill="#54A1FF"/>
<path d="M22.2741 33.9776C21.6404 33.9776 21.0584 33.8303 20.5422 33.5319C18.9556 32.6159 18.2907 30.449 18.6691 27.4311C19.0165 24.6625 20.1994 21.4192 22.0005 18.2986C23.801 15.1779 26.017 12.5313 28.2402 10.8457C30.663 9.00919 32.871 8.50184 34.4577 9.41825C36.0437 10.3346 36.7092 12.5016 36.3303 15.5191C35.9829 18.2877 34.8 21.5313 32.999 24.6521C31.1985 27.7723 28.9825 30.4192 26.7593 32.1044C25.125 33.3435 23.5882 33.9776 22.2741 33.9776ZM32.7099 10.6574C31.788 10.6574 30.5854 11.1839 29.2581 12.1897C27.2104 13.7424 25.151 16.2114 23.4603 19.1415C21.7692 22.0722 20.6615 25.0906 20.3417 27.6413C20.0568 29.9094 20.4373 31.5241 21.3849 32.0717C22.3327 32.6192 23.9207 32.1409 25.7418 30.7603C27.7894 29.2077 29.8485 26.7392 31.5395 23.8086C33.2307 20.8783 34.338 17.8601 34.6582 15.3093C34.9427 13.0407 34.5626 11.4261 33.6146 10.8789C33.3579 10.7304 33.0531 10.6574 32.7099 10.6574Z" fill="#54A1FF"/>
<path d="M27.5 27.8286C23.8984 27.8286 20.4991 27.2318 17.9289 26.1484C15.1271 24.9676 13.5842 23.3079 13.5842 21.4751C13.5842 19.6423 15.1271 17.983 17.9289 16.8018C20.4991 15.7188 23.8983 15.1221 27.5 15.1221C31.1016 15.1221 34.5005 15.7188 37.0711 16.8018C39.8724 17.983 41.4153 19.6422 41.4153 21.4751C41.4153 23.308 39.8724 24.9676 37.0711 26.1484C34.5005 27.2318 31.1016 27.8286 27.5 27.8286ZM27.5 16.8086C20.2926 16.8086 15.2698 19.2679 15.2698 21.4751C15.2698 23.6826 20.2926 26.1421 27.5 26.1421C34.7069 26.1421 39.7297 23.6827 39.7297 21.4751C39.7297 19.2679 34.7069 16.8086 27.5 16.8086Z" fill="#54A1FF"/>
</svg>
