<svg width="55" height="55" viewBox="0 0 55 55" fill="none" xmlns="http://www.w3.org/2000/svg">
<path d="M39.0115 -0.000488281H15.9885C5.9785 -0.000488281 0 5.97526 0 15.988V39.011C0 49.0238 5.9785 54.9995 15.9885 54.9995H39.0115C49.0215 54.9995 55 49.0238 55 39.011V15.988C55 5.97526 49.0215 -0.000488281 39.0115 -0.000488281ZM22.352 34.3745C22.5436 34.5661 22.6956 34.7935 22.7992 35.0438C22.9029 35.2942 22.9563 35.5625 22.9563 35.8334C22.9563 36.1043 22.9029 36.3726 22.7992 36.6229C22.6956 36.8732 22.5436 37.1007 22.352 37.2923C22.1604 37.4838 21.933 37.6358 21.6827 37.7395C21.4323 37.8432 21.1641 37.8965 20.8931 37.8965C20.6222 37.8965 20.3539 37.8432 20.1036 37.7395C19.8533 37.6358 19.6258 37.4838 19.4343 37.2923L12.584 30.4283C11.8107 29.6502 11.3766 28.5979 11.3766 27.5009C11.3766 26.4039 11.8107 25.3515 12.584 24.5735L19.4343 17.7205C19.8212 17.3336 20.3459 17.1162 20.8931 17.1162C21.4403 17.1162 21.9651 17.3336 22.352 17.7205C22.7389 18.1074 22.9563 18.6322 22.9563 19.1794C22.9563 19.7266 22.7389 20.2513 22.352 20.6383L15.5017 27.4995L22.352 34.3745ZM42.427 30.4393L35.574 37.2923C35.3824 37.4844 35.1549 37.6369 34.9044 37.7411C34.6538 37.8453 34.3852 37.8991 34.1139 37.8995C33.8426 37.8998 33.5739 37.8468 33.323 37.7433C33.0722 37.6398 32.8442 37.488 32.6521 37.2964C32.46 37.1048 32.3075 36.8773 32.2033 36.6267C32.0991 36.3762 32.0453 36.1076 32.0449 35.8363C32.0445 35.565 32.0976 35.2962 32.2011 35.0454C32.3046 34.7946 32.4564 34.5666 32.648 34.3745L39.4983 27.527L32.648 20.652C32.2611 20.2651 32.0437 19.7403 32.0437 19.1931C32.0437 18.646 32.2611 18.1212 32.648 17.7343C33.0349 17.3473 33.5597 17.13 34.1069 17.13C34.6541 17.13 35.1788 17.3473 35.5658 17.7343L42.416 24.5845C43.1855 25.3616 43.6174 26.4108 43.6179 27.5044C43.6185 28.5981 43.1875 29.6477 42.4187 30.4255L42.427 30.4393Z" fill="black"/>
</svg>
